<?xml version="1.0" encoding="UTF-8"?>
<svg width="31px" height="31px" viewBox="0 0 31 31" version="1.1" xmlns="http://www.w3.org/2000/svg" xmlns:xlink="http://www.w3.org/1999/xlink">
    <title>66CFED67-E916-4851-8724-55FD8847D470</title>
    <g id="Page-1" stroke="none" stroke-width="1" fill="none" fill-rule="evenodd">
        <g id="Programs---Idea2POC" transform="translate(-842.000000, -742.000000)" fill="#FFFFFF" fill-rule="nonzero">
            <g id="Group-31" transform="translate(812.000000, 526.000000)">
                <g id="calendar-(1)-copy" transform="translate(30.000000, 216.000000)">
                    <path d="M27.5,3 L25,3 L25,2 C25,0.8954305 24.1045695,0 23,0 C21.8954305,0 21,0.8954305 21,2 L21,3 L17,3 L17,2 C17,0.8954305 16.1045695,0 15,0 C13.8954305,0 13,0.8954305 13,2 L13,3 L9,3 L9,2 C9,0.8954305 8.1045695,0 7,0 C5.8954305,0 5,0.8954305 5,2 L5,3 L2.5,3 C1.11928813,3 0,4.11928813 0,5.5 L0,25.5 C0,26.1630412 0.263392101,26.798926 0.732233047,27.267767 C1.20107399,27.7366079 1.83695878,28 2.5,28 L16.5,28 C16.7761424,28 17,27.7761424 17,27.5 C17,27.2238576 16.7761424,27 16.5,27 L2.5,27 C1.6725986,26.9975289 1.0024711,26.3274014 1,25.5 L1,10 L29,10 L29,18.5 C29,18.7761424 29.2238576,19 29.5,19 C29.7761424,19 30,18.7761424 30,18.5 L30,5.5 C30,4.11928813 28.8807119,3 27.5,3 Z M22,2 C22,1.44771525 22.4477153,1 23,1 C23.5522847,1 24,1.44771525 24,2 L24,5 C24,5.55228475 23.5522847,6 23,6 C22.4477153,6 22,5.55228475 22,5 L22,2 Z M14,2 C14,1.44771525 14.4477153,1 15,1 C15.5522847,1 16,1.44771525 16,2 L16,5 C16,5.55228475 15.5522847,6 15,6 C14.4477153,6 14,5.55228475 14,5 L14,2 Z M6,2 C6,1.44771525 6.44771525,1 7,1 C7.55228475,1 8,1.44771525 8,2 L8,5 C8,5.55228475 7.55228475,6 7,6 C6.44771525,6 6,5.55228475 6,5 L6,2 Z M29,9 L1,9 L1,5.5 C1.0024711,4.6725986 1.6725986,4.0024711 2.5,4 L5,4 L5,5 C5,6.1045695 5.8954305,7 7,7 C8.1045695,7 9,6.1045695 9,5 L9,4 L13,4 L13,5 C13,6.1045695 13.8954305,7 15,7 C16.1045695,7 17,6.1045695 17,5 L17,4 L21,4 L21,5 C21,6.1045695 21.8954305,7 23,7 C24.1045695,7 25,6.1045695 25,5 L25,4 L27.5,4 C28.3274014,4.0024711 28.9975289,4.6725986 29,5.5 L29,9 Z" id="Shape"></path>
                    <path d="M14,13.5 C14,12.9477153 13.5522847,12.5 13,12.5 L11,12.5 C10.4477153,12.5 10,12.9477153 10,13.5 L10,15 C10,15.5522847 10.4477153,16 11,16 L13,16 C13.5522847,16 14,15.5522847 14,15 L14,13.5 Z M11,15 L11,13.5 L13,13.5 L13,15 L11,15 Z" id="Shape"></path>
                    <path d="M8,13.5 C8,12.9477153 7.55228475,12.5 7,12.5 L5,12.5 C4.44771525,12.5 4,12.9477153 4,13.5 L4,15 C4,15.5522847 4.44771525,16 5,16 L7,16 C7.55228475,16 8,15.5522847 8,15 L8,13.5 Z M5,15 L5,13.5 L7,13.5 L7,15 L5,15 Z" id="Shape"></path>
                    <path d="M25,16 C25.5522847,16 26,15.5522847 26,15 L26,13.5 C26,12.9477153 25.5522847,12.5 25,12.5 L23,12.5 C22.4477153,12.5 22,12.9477153 22,13.5 L22,15 C22,15.5522847 22.4477153,16 23,16 L25,16 Z M23,13.5 L25,13.5 L25,15 L23,15 L23,13.5 Z" id="Shape"></path>
                    <path d="M14,18 C14,17.4477153 13.5522847,17 13,17 L11,17 C10.4477153,17 10,17.4477153 10,18 L10,19.5 C10,20.0522847 10.4477153,20.5 11,20.5 L13,20.5 C13.5522847,20.5 14,20.0522847 14,19.5 L14,18 Z M11,19.5 L11,18 L13,18 L13,19.5 L11,19.5 Z" id="Shape"></path>
                    <path d="M8,18 C8,17.4477153 7.55228475,17 7,17 L5,17 C4.44771525,17 4,17.4477153 4,18 L4,19.5 C4,20.0522847 4.44771525,20.5 5,20.5 L7,20.5 C7.55228475,20.5 8,20.0522847 8,19.5 L8,18 Z M5,19.5 L5,18 L7,18 L7,19.5 L5,19.5 Z" id="Shape"></path>
                    <path d="M13,21.5 L11,21.5 C10.4477153,21.5 10,21.9477153 10,22.5 L10,24 C10,24.5522847 10.4477153,25 11,25 L13,25 C13.5522847,25 14,24.5522847 14,24 L14,22.5 C14,21.9477153 13.5522847,21.5 13,21.5 Z M11,24 L11,22.5 L13,22.5 L13,24 L11,24 Z" id="Shape"></path>
                    <path d="M17,16 L19,16 C19.5522847,16 20,15.5522847 20,15 L20,13.5 C20,12.9477153 19.5522847,12.5 19,12.5 L17,12.5 C16.4477153,12.5 16,12.9477153 16,13.5 L16,15 C16,15.5522847 16.4477153,16 17,16 Z M17,13.5 L19,13.5 L19,15 L17,15 L17,13.5 Z" id="Shape"></path>
                    <path d="M16,19.5 C16,20.0522847 16.4477153,20.5 17,20.5 C17.2761424,20.5 17.5,20.2761424 17.5,20 C17.5,19.7238576 17.2761424,19.5 17,19.5 L17,18 L19,18 C19.2761424,18 19.5,17.7761424 19.5,17.5 C19.5,17.2238576 19.2761424,17 19,17 L17,17 C16.4477153,17 16,17.4477153 16,18 L16,19.5 Z" id="Path"></path>
                    <path d="M7,21.5 L5,21.5 C4.44771525,21.5 4,21.9477153 4,22.5 L4,24 C4,24.5522847 4.44771525,25 5,25 L7,25 C7.55228475,25 8,24.5522847 8,24 L8,22.5 C8,21.9477153 7.55228475,21.5 7,21.5 Z M5,24 L5,22.5 L7,22.5 L7,24 L5,24 Z" id="Shape"></path>
                    <g id="cancel" transform="translate(17.000000, 17.000000)" stroke="#FFFFFF" stroke-width="0.5">
                        <path d="M6.5,0 C2.91013911,0 0,2.91013911 0,6.5 C0,10.0898609 2.91013911,13 6.5,13 C10.0898609,13 13,10.0898609 13,6.5 C12.9958327,2.91186895 10.088131,0.00416733871 6.5,0 Z M6.5,12.5806452 C3.14175403,12.5806452 0.419354839,9.85824597 0.419354839,6.5 C0.419354839,3.14175403 3.14175403,0.419354839 6.5,0.419354839 C9.85824597,0.419354839 12.5806452,3.14175403 12.5806452,6.5 C12.5769496,9.85672581 9.85672581,12.5769496 6.5,12.5806452 Z" id="Shape"></path>
                        <path d="M9.46525806,3.53474194 C9.38337903,3.45288911 9.25065323,3.45288911 9.16877419,3.53474194 L6.5,6.20351613 L3.83122581,3.53474194 C3.75078831,3.45144758 3.61803629,3.44914113 3.53474194,3.52957863 C3.45144758,3.61001613 3.44914113,3.74276815 3.52957863,3.8260625 C3.53125605,3.82781855 3.53298589,3.82952218 3.53474194,3.83122581 L6.20351613,6.5 L3.53474194,9.16877419 C3.45144758,9.2492379 3.44914113,9.38196371 3.52960484,9.46525806 C3.61006855,9.54855242 3.74279435,9.55085887 3.82608871,9.47039516 C3.82784476,9.46871774 3.82954839,9.4669879 3.83122581,9.46525806 L6.5,6.79648387 L9.16877419,9.46525806 C9.25206855,9.54572177 9.38479435,9.54341532 9.46525806,9.46012097 C9.54375605,9.37887097 9.54375605,9.25002419 9.46525806,9.16877419 L6.79648387,6.5 L9.46525806,3.83122581 C9.54711089,3.74934677 9.54711089,3.61662097 9.46525806,3.53474194 Z" id="Path"></path>
                    </g>
                </g>
            </g>
        </g>
    </g>
</svg>