<?xml version="1.0" encoding="UTF-8"?>
<svg width="27px" height="30px" viewBox="0 0 27 30" version="1.1" xmlns="http://www.w3.org/2000/svg" xmlns:xlink="http://www.w3.org/1999/xlink">
    <title>A57E0E2B-6EF4-4364-B7D0-A76DA65F8BFE</title>
    <g id="Page-1" stroke="none" stroke-width="1" fill="none" fill-rule="evenodd">
        <g id="Programs---Idea2POC" transform="translate(-842.000000, -840.000000)" fill="#FFFFFF" fill-rule="nonzero">
            <g id="Group-31" transform="translate(812.000000, 526.000000)">
                <g id="location" transform="translate(30.000000, 314.000000)">
                    <path d="M17.3896639,19.7553782 C17.4478992,19.6605882 17.5061345,19.567563 17.5643697,19.4710084 C20.1834454,15.1348739 21.5014286,11.3417647 21.482521,8.19831933 C21.4583075,3.69609501 17.8021136,0.0588955964 13.2998243,0.0581326938 C8.7975349,0.0573700313 5.14010883,3.69333037 5.11436975,8.19554622 C5.09521008,11.3417647 6.41344538,15.1353782 9.03252101,19.4710084 C9.0907563,19.567563 9.1489916,19.6605882 9.20722689,19.7553782 C3.69327731,20.4368067 0.0378151261,22.407479 0.0378151261,24.7472269 C0.0378151261,27.6847059 5.86134454,29.9856303 13.2983193,29.9856303 C20.7352941,29.9856303 26.5588235,27.6847059 26.5588235,24.7472269 C26.5588235,22.407479 22.9033613,20.4368067 17.3896639,19.7553782 Z M5.99672269,8.19831933 C5.98183975,5.57944608 7.37062753,3.15316598 9.63635664,1.83970103 C11.9020858,0.526236074 14.6977192,0.526766948 16.9629493,1.84109231 C19.2281794,3.15541766 20.6160456,5.58222503 20.6001681,8.20109244 C20.6379832,14.4678151 14.7791597,22.1969748 13.2983193,24.0504202 C11.817479,22.1969748 5.95840336,14.467563 5.99672269,8.19831933 L5.99672269,8.19831933 Z M13.2983193,29.1032773 C5.89386555,29.1032773 0.920168067,26.8507563 0.920168067,24.7472269 C0.920168067,22.8816807 4.60815126,21.1459664 9.72705882,20.5830252 C10.7170814,22.1288307 11.7973581,23.6149373 12.9622689,25.0336134 C13.0459976,25.1323174 13.1688861,25.1892205 13.2983193,25.1892205 C13.4277526,25.1892205 13.5506411,25.1323174 13.6343697,25.0336134 C14.7993668,23.614944 15.8797278,22.1288373 16.8698319,20.5830252 C21.987479,21.1459664 25.6767227,22.8806723 25.6767227,24.7472269 C25.6764706,26.8507563 20.7027731,29.1032773 13.2983193,29.1032773 L13.2983193,29.1032773 Z" id="Shape"></path>
                    <path d="M9.6912605,26.5479832 C7.73344538,26.297395 6.16184874,25.8562185 5.26739496,25.3063866 C5.13304433,25.2205 4.96280385,25.2137949 4.82211447,25.2888489 C4.68142509,25.3639028 4.59218493,25.5090337 4.58869818,25.6684528 C4.58521143,25.8278718 4.6680208,25.9767657 4.80529412,26.0578992 C5.80436975,26.6720168 7.5,27.1570588 9.57932773,27.4230252 C9.59805297,27.4254443 9.6169176,27.4266234 9.63579832,27.4265575 C9.86783432,27.4254301 10.0593412,27.2447562 10.0739602,27.0131785 C10.0885792,26.7816007 9.92131305,26.5782783 9.6912605,26.5479832 L9.6912605,26.5479832 Z" id="Path"></path>
                    <path d="M14.0392437,26.7587395 C13.4243697,26.7728571 12.7840336,26.7695798 12.1590756,26.7466387 C12.0014585,26.7408293 11.8527149,26.8195491 11.7688753,26.9531449 C11.6850357,27.0867407 11.6788373,27.2549162 11.7526148,27.3943214 C11.8263924,27.5337265 11.9689374,27.6231823 12.1265546,27.6289916 C12.5142857,27.6431092 12.9080672,27.6504202 13.2983193,27.6504202 C13.554958,27.6504202 13.8088235,27.647395 14.059916,27.6413445 C14.3034995,27.6357014 14.4963908,27.4336678 14.4907563,27.190084 C14.4895385,27.0725329 14.4409178,26.9604512 14.3559153,26.8792456 C14.2709129,26.79804 14.1567279,26.7545881 14.0392437,26.7587395 L14.0392437,26.7587395 Z" id="Path"></path>
                    <path d="M17.0236134,8.19831933 C17.023335,6.14078981 15.3551766,4.4730453 13.2976471,4.47327734 C11.2401176,4.47350939 9.57233543,6.14163012 9.57252106,8.19915965 C9.57270669,10.2566892 11.2407898,11.924509 13.2983193,11.9243697 C15.3550008,11.9218686 17.0215298,10.2550012 17.0236134,8.19831933 L17.0236134,8.19831933 Z M10.4551261,8.19831933 C10.4554045,6.6281327 11.7284688,5.35544465 13.2986554,5.35563027 C14.868842,5.3558159 16.1416054,6.62880492 16.1415126,8.19899157 C16.1414198,9.76917821 14.868506,11.0420168 13.2983193,11.0420168 C11.7285616,11.0403489 10.4565156,9.76807734 10.4551261,8.19831933 Z" id="Shape"></path>
                </g>
            </g>
        </g>
    </g>
</svg>