<?xml version="1.0" encoding="UTF-8"?>
<svg width="30px" height="30px" viewBox="0 0 30 30" version="1.1" xmlns="http://www.w3.org/2000/svg" xmlns:xlink="http://www.w3.org/1999/xlink">
    <title>38BE58AB-A79D-4072-B7DE-4E1E5B4853CB</title>
    <g id="Page-1" stroke="none" stroke-width="1" fill="none" fill-rule="evenodd">
        <g id="Programs---Idea2POC" transform="translate(-842.000000, -1137.000000)" fill-rule="nonzero">
            <g id="Group-31" transform="translate(812.000000, 526.000000)">
                <g id="telephone" transform="translate(30.000000, 611.000000)">
                    <path d="M13.6221313,22.8705597 C13.3934784,23.0989838 13.3934784,23.4700013 13.6221313,23.6988831 C13.8512421,23.927536 14.2220306,23.927536 14.4504547,23.6988831 C14.6795654,23.4700013 14.6795654,23.0989838 14.4504547,22.8705597 C14.2220306,22.6414489 13.8512421,22.6414489 13.6221313,22.8705597 L13.6221313,22.8705597 Z" id="Path" fill="#FFFFFF"></path>
                    <path d="M28.6475372,21.852951 L24.1989899,18.070221 C24.1783905,18.0528259 24.1566468,18.0368042 24.1339874,18.0223846 C22.9669189,17.2794342 21.4684296,17.4440003 20.4899597,18.4222412 L18.0644989,20.8474731 C17.8964996,21.0157013 17.645874,21.0653687 17.4261475,20.9747314 C14.6873474,19.8417663 12.437439,18.1361389 10.7389069,15.9056854 C9.44366455,14.2048645 8.97674561,12.8533172 8.91517641,12.6628876 C8.90785219,12.6221466 8.8961792,12.5816345 8.87969971,12.5420379 C8.78883363,12.3223114 8.83850098,12.0721436 9.00695801,11.9041443 L11.4321899,9.47822572 C12.4106598,8.49975586 12.5749969,7.00126646 11.8320465,5.83419797 C11.8260956,5.82481383 11.8199157,5.81565855 11.8135071,5.80650328 L8.6009216,1.34216309 C7.59017941,-0.225906387 5.38856508,-0.462799102 4.0672302,0.858306914 L3.58154297,1.34399414 C3.5813141,1.34445187 3.58085631,1.34490967 3.58039857,1.34513854 L1.84638979,3.07914732 C-0.22132875,5.14709473 -0.559616074,8.25439453 0.868377656,12.0657349 C2.09152219,15.3305054 4.5401001,18.9035797 7.76298521,22.1264648 C11.062088,25.4255677 14.7317505,27.9194641 18.0958557,29.1487884 C21.4256286,30.3652954 24.9675751,30.515213 27.4745179,28.0080414 L29.1098786,26.3729095 C30.4252624,25.0572967 30.195694,22.8701019 28.6475372,21.852951 Z M23.4729767,18.9907837 L27.9176331,22.7703094 C27.9380036,22.7877045 27.9597473,22.8037262 27.9824066,22.8181458 C28.9318085,23.4226227 29.0755462,24.7501373 28.2810974,25.5443573 L28.15979,25.6658936 L20.5789948,19.9900818 L21.318512,19.2507935 C21.8964386,18.672638 22.7771759,18.5680389 23.4729767,18.9907837 L23.4729767,18.9907837 Z M7.621994,1.98600768 C7.62794496,1.99539187 7.63412473,2.00477602 7.64053348,2.01370242 L10.8517456,6.47644043 C11.2879944,7.17475893 11.1870575,8.06625363 10.6036377,8.64967348 L9.88700865,9.36653139 L4.75822447,1.82441713 L4.8957825,1.6868591 C5.69343568,0.889205918 7.01980594,1.04003906 7.621994,1.98600768 Z M18.4977722,28.0480957 C15.29068,26.8762207 11.7725372,24.4789124 8.59153746,21.2979126 C5.48423766,18.1908417 3.13110352,14.7660827 1.96540834,11.6546631 C1.09039307,9.31915283 0.503311172,6.07933043 2.67494203,3.90792844 L3.91479492,2.66784668 L9.0435791,10.2099609 L8.17863463,11.0753631 C7.68653871,11.5665436 7.53181459,12.2934723 7.77740479,12.9407501 C7.96234131,13.6997223 8.81332395,15.2751159 9.67185973,16.4360046 C10.9352875,18.1443786 13.2284546,20.5062103 16.9782257,22.0575714 C17.6371765,22.3301696 18.3885956,22.180481 18.8930511,21.6762543 L19.7419739,20.8271027 L27.3227692,26.5029144 L26.6459655,27.1794891 C24.3180084,29.5076752 20.9300995,28.9368439 18.4977722,28.0480957 Z" id="Shape" fill="#FFFFFF"></path>
                    <path d="M12.522583,21.4716339 C11.9036865,20.9289551 10.8332062,19.9955749 10.2694702,19.4155884 C8.88702393,17.9949188 7.43659975,16.2728119 6.57417299,15.0286102 C6.38992313,14.7626496 6.02485658,14.6962738 5.75889586,14.8807526 C5.4929352,15.0650024 5.42678836,15.430069 5.61103822,15.6960296 C6.69868471,17.2652435 8.29673766,19.0683746 9.42947391,20.2324676 C10.0245667,20.8449554 11.1042023,21.7865753 11.7498779,22.3526001 C11.9927215,22.5654602 12.3628235,22.5421143 12.576828,22.2983551 C12.7901459,22.0552826 12.7658844,21.6849518 12.522583,21.4716339 Z" id="Path" fill="#1F3C88"></path>
                </g>
            </g>
        </g>
    </g>
</svg>