<svg width="53" height="34" viewBox="0 0 53 34" fill="none" xmlns="http://www.w3.org/2000/svg">
<path fill-rule="evenodd" clip-rule="evenodd" d="M6.15819 5.9585L0 21.4887H3.70122L4.79341 18.4066H10.7391L11.8313 21.4887H15.5321L9.37395 5.9585H6.15819ZM7.76589 9.8638L9.85941 15.8747H5.67273L7.76589 9.8638Z" fill="#495660"/>
<path fill-rule="evenodd" clip-rule="evenodd" d="M12.5117 0.782227V3.77171H17.2977V15.881H20.6695V3.77171H25.4552V0.782227H12.5117Z" fill="#495660"/>
<path fill-rule="evenodd" clip-rule="evenodd" d="M30.6329 9.8637L28.5408 15.8748H32.7257L30.6329 9.8637ZM33.6058 18.407H27.6607L26.5685 21.4887H22.8672L29.0259 5.9585H32.2406L38.3993 21.4887H34.698L33.6058 18.407Z" fill="#495660"/>
<path fill-rule="evenodd" clip-rule="evenodd" d="M46.4752 12.3779C51.0469 12.7754 52.4188 13.7535 52.4188 16.9925C52.4188 19.7429 50.6508 21.9434 45.622 21.9434C44.0978 21.9434 41.4159 21.5463 40.3495 21.0572V17.9706C41.5683 18.4596 43.6104 18.887 45.6522 18.887C48.1515 18.887 49.0353 18.2459 49.0353 16.9925C49.0353 15.7701 48.2432 15.373 46.0486 15.1892C41.4773 14.7921 40.1055 13.7837 40.1055 10.8193C40.1055 7.79466 41.9952 5.92969 46.5058 5.92969C48.0297 5.92969 50.4068 6.20539 51.7176 6.78559V9.87222C50.3461 9.35292 48.4869 8.98568 46.4752 8.98568C44.2196 8.98568 43.4278 9.53598 43.4278 10.8193C43.4278 11.9498 44.2811 12.1948 46.4752 12.3779Z" fill="#495660"/>
<path fill-rule="evenodd" clip-rule="evenodd" d="M21.4649 24.3184L19.2619 22.1099L17.0585 24.3184H0.1875V26.9175H17.7232H17.9176L19.2619 25.57L20.6058 26.9175H20.8001H51.7704V24.3184H21.4649Z" fill="#495660"/>
<path fill-rule="evenodd" clip-rule="evenodd" d="M9.8125 30.9999H10.2553V30.2847H10.9024V30.9999H11.7343V31.5491H10.9024V32.9461C10.9024 33.2971 11.0541 33.4163 11.3047 33.4163C11.4965 33.4163 11.6614 33.3569 11.8396 33.2506V33.84C11.6482 33.9393 11.4104 33.9991 11.1332 33.9991C10.6576 33.9991 10.2553 33.7603 10.2553 33.0919V31.5491H9.8125V30.9999Z" fill="#495660"/>
<path fill-rule="evenodd" clip-rule="evenodd" d="M12.9705 33.9328H12.3164V31.2448C12.6337 31.0658 13.043 30.9536 13.459 30.9536C13.6636 30.9536 13.8223 30.9732 14.0203 31.0263V31.6619C13.8351 31.5888 13.6305 31.5689 13.459 31.5689C13.2609 31.5689 13.1023 31.6091 12.9705 31.6619V33.9328Z" fill="#495660"/>
<path fill-rule="evenodd" clip-rule="evenodd" d="M15.8528 32.6479H15.5756C15.1199 32.6479 14.8229 32.78 14.8229 33.0778C14.8229 33.3827 15.1001 33.5019 15.4965 33.5019C15.5955 33.5019 15.7339 33.4883 15.8528 33.4691V32.6479ZM15.8528 31.9658C15.8528 31.6484 15.615 31.5026 15.2915 31.5026C14.955 31.5026 14.6907 31.6019 14.4463 31.7407V31.1715C14.704 31.0257 15.0338 30.9331 15.3971 30.9331C16.0376 30.9331 16.4933 31.1977 16.4933 31.9326V33.8725C16.2157 33.9452 15.82 33.9917 15.4895 33.9917C14.7305 33.9917 14.1758 33.7599 14.1758 33.0978C14.1758 32.5021 14.6841 32.2109 15.5292 32.2109H15.8528V31.9658Z" fill="#495660"/>
<path fill-rule="evenodd" clip-rule="evenodd" d="M17.8555 33.9326L16.7266 30.9995H17.4197L18.2449 33.2967L19.0639 30.9995H19.7375L18.6016 33.9326H17.8555Z" fill="#495660"/>
<path fill-rule="evenodd" clip-rule="evenodd" d="M21.8504 32.1913C21.8372 31.7344 21.6127 31.483 21.1905 31.483C20.8139 31.483 20.5364 31.7473 20.4506 32.1913H21.8504ZM20.4307 32.6146V32.6283C20.4705 33.1513 20.9192 33.4358 21.3749 33.4358C21.7779 33.4358 22.0684 33.3432 22.3588 33.1513V33.7271C22.0949 33.9127 21.705 33.9987 21.3289 33.9987C20.4178 33.9987 19.7969 33.4159 19.7969 32.4892C19.7969 31.5557 20.4042 30.9331 21.21 30.9331C22.0617 30.9331 22.4644 31.483 22.4644 32.2839V32.6146H20.4307Z" fill="#495660"/>
<mask id="mask0" mask-type="alpha" maskUnits="userSpaceOnUse" x="0" y="0" width="53" height="35">
<path d="M0 34.0003H52.4206V0.816895H0V34.0003Z" fill="#495660"/>
</mask>
<g mask="url(#mask0)">
<path fill-rule="evenodd" clip-rule="evenodd" d="M23.0508 33.9326H23.7045V29.4302H23.0508V33.9326Z" fill="#495660"/>
<path fill-rule="evenodd" clip-rule="evenodd" d="M27.2004 32.6479H26.9233C26.4676 32.6479 26.1705 32.78 26.1705 33.0778C26.1705 33.3827 26.4477 33.5019 26.8441 33.5019C26.9432 33.5019 27.0816 33.4883 27.2004 33.4691V32.6479ZM27.2004 31.9658C27.2004 31.6484 26.963 31.5026 26.6395 31.5026C26.3027 31.5026 26.0384 31.6019 25.794 31.7407V31.1715C26.0516 31.0257 26.3815 30.9331 26.7451 30.9331C27.3856 30.9331 27.8413 31.1977 27.8413 31.9326V33.8725C27.5638 33.9452 27.1677 33.9917 26.8375 33.9917C26.0781 33.9917 25.5234 33.7599 25.5234 33.0978C25.5234 32.5021 26.0318 32.2109 26.8773 32.2109H27.2004V31.9658Z" fill="#495660"/>
<path fill-rule="evenodd" clip-rule="evenodd" d="M30.7221 31.7872C30.4776 31.5949 30.2204 31.5159 29.9498 31.5159C29.4212 31.5159 29.0119 31.8536 29.0119 32.4692C29.0119 33.0516 29.4083 33.4226 29.9763 33.4226C30.2664 33.4226 30.5174 33.3299 30.7552 33.1579V33.7798C30.4846 33.9323 30.2005 33.9987 29.8902 33.9987C28.9987 33.9987 28.3516 33.4093 28.3516 32.4692C28.3516 31.5222 29.0318 30.9331 29.8902 30.9331C30.2141 30.9331 30.4648 31.0058 30.7221 31.1516V31.7872Z" fill="#495660"/>
<path fill-rule="evenodd" clip-rule="evenodd" d="M33.4642 31.7872C33.2198 31.5949 32.9622 31.5159 32.6916 31.5159C32.1638 31.5159 31.7541 31.8536 31.7541 32.4692C31.7541 33.0516 32.1505 33.4226 32.7181 33.4226C33.0085 33.4226 33.2596 33.3299 33.497 33.1579V33.7798C33.2268 33.9323 32.9427 33.9987 32.6324 33.9987C31.7409 33.9987 31.0938 33.4093 31.0938 32.4692C31.0938 31.5222 31.7743 30.9331 32.6324 30.9331C32.9559 30.9331 33.2069 31.0058 33.4642 31.1516V31.7872Z" fill="#495660"/>
<path fill-rule="evenodd" clip-rule="evenodd" d="M34.7319 33.9328H34.0781V31.2448C34.395 31.0658 34.8044 30.9536 35.2203 30.9536C35.425 30.9536 35.5832 30.9732 35.7816 31.0263V31.6619C35.5969 31.5888 35.3918 31.5689 35.2203 31.5689C35.0219 31.5689 34.8636 31.6091 34.7319 31.6619V33.9328Z" fill="#495660"/>
<path fill-rule="evenodd" clip-rule="evenodd" d="M38.0532 32.1913C38.0403 31.7344 37.8158 31.483 37.3932 31.483C37.017 31.483 36.7395 31.7473 36.6537 32.1913H38.0532ZM36.6339 32.6146V32.6283C36.6732 33.1513 37.1223 33.4358 37.578 33.4358C37.9811 33.4358 38.2715 33.3432 38.5615 33.1513V33.7271C38.298 33.9127 37.9082 33.9987 37.5316 33.9987C36.6206 33.9987 36 33.4159 36 32.4892C36 31.5557 36.6073 30.9331 37.4131 30.9331C38.2648 30.9331 38.6675 31.483 38.6675 32.2839V32.6146H36.6339Z" fill="#495660"/>
<path fill-rule="evenodd" clip-rule="evenodd" d="M41.2042 31.6223C41.0724 31.5492 40.8873 31.5097 40.6627 31.5097C40.115 31.5097 39.7186 31.8537 39.7186 32.4564C39.7186 33.0853 40.1283 33.4363 40.7617 33.4363C40.8939 33.4363 41.0588 33.4293 41.2042 33.4097V31.6223ZM41.8513 33.8729C41.5145 33.9593 41.1118 33.9992 40.7485 33.9992C39.7318 33.9992 39.0586 33.4559 39.0586 32.4693C39.0586 31.5226 39.7252 30.9336 40.623 30.9336C40.8346 30.9336 41.0658 30.9734 41.2042 31.0461V29.4307H41.8513V33.8729Z" fill="#495660"/>
<path fill-rule="evenodd" clip-rule="evenodd" d="M42.5819 33.9332H43.2356V31.0001H42.5819V33.9332ZM42.4961 30.0996C42.4961 29.8744 42.6879 29.6958 42.9054 29.6958C43.123 29.6958 43.3151 29.8744 43.3151 30.0996C43.3151 30.3314 43.123 30.517 42.9054 30.517C42.6879 30.517 42.4961 30.3314 42.4961 30.0996Z" fill="#495660"/>
<path fill-rule="evenodd" clip-rule="evenodd" d="M43.6055 30.9999H44.0483V30.2847H44.695V30.9999H45.5273V31.5491H44.695V32.9461C44.695 33.2971 44.847 33.4163 45.0981 33.4163C45.2895 33.4163 45.4544 33.3569 45.6325 33.2506V33.84C45.4411 33.9393 45.2037 33.9991 44.9262 33.9991C44.4506 33.9991 44.0483 33.7603 44.0483 33.0919V31.5491H43.6055V30.9999Z" fill="#495660"/>
<path fill-rule="evenodd" clip-rule="evenodd" d="M47.952 32.1913C47.9384 31.7344 47.7142 31.483 47.2917 31.483C46.9155 31.483 46.6376 31.7473 46.5522 32.1913H47.952ZM46.5323 32.6146V32.6283C46.5717 33.1513 47.0207 33.4358 47.4764 33.4358C47.8791 33.4358 48.1695 33.3432 48.4603 33.1513V33.7271C48.196 33.9127 47.8062 33.9987 47.4304 33.9987C46.519 33.9987 45.8984 33.4159 45.8984 32.4892C45.8984 31.5557 46.5058 30.9331 47.3112 30.9331C48.1629 30.9331 48.566 31.483 48.566 32.2839V32.6146H46.5323Z" fill="#495660"/>
<path fill-rule="evenodd" clip-rule="evenodd" d="M51.1034 31.6223C50.9712 31.5492 50.7864 31.5097 50.5615 31.5097C50.0138 31.5097 49.6177 31.8537 49.6177 32.4564C49.6177 33.0853 50.0271 33.4363 50.6609 33.4363C50.7931 33.4363 50.958 33.4293 51.1034 33.4097V31.6223ZM51.7505 33.8729C51.4137 33.9593 51.011 33.9992 50.6477 33.9992C49.631 33.9992 48.957 33.4559 48.957 32.4693C48.957 31.5226 49.6244 30.9336 50.5221 30.9336C50.7338 30.9336 50.9646 30.9734 51.1034 31.0461V29.4307H51.7505V33.8729Z" fill="#495660"/>
</g>
</svg>
