<svg width="30" height="30" viewBox="0 0 30 30" fill="none" xmlns="http://www.w3.org/2000/svg">
<path fill-rule="evenodd" clip-rule="evenodd" d="M5 0C2.23858 0 0 2.23858 0 5V25C0 27.7614 2.23858 30 5 30H25C27.7614 30 30 27.7614 30 25V5C30 2.23858 27.7614 0 25 0H5ZM20.0873 12.0462L20.2031 12.1608C21.9774 13.6757 22.8338 15.5535 22.8207 17.9008C22.7972 22.0662 19.3568 25.4549 15.1514 25.4549H13.9115C11.8848 25.4549 9.97253 24.6728 8.52717 23.2529C7.07897 21.8304 6.26748 19.9321 6.24218 17.9076C6.21904 16.0516 6.66882 14.0571 7.57901 11.9793L7.8049 11.4635L10.6981 12.3082C11.0017 9.24556 12.8058 6.50647 15.5461 5.02798L18.1245 3.63672L17.8239 6.28675C17.5682 8.54077 18.3854 10.6335 20.0658 12.0284L20.0873 12.0462ZM11.3475 21.3488C11.367 22.9064 12.6562 24.1735 14.2212 24.1735H14.8413C16.417 24.1735 17.7061 22.9079 17.7149 21.352C17.7199 20.4514 17.4179 19.7914 16.7356 19.212L16.6998 19.1792L16.6624 19.1422C15.7105 18.3411 15.1902 17.1986 15.1932 15.9487C14.1844 16.624 13.5642 17.7588 13.5531 18.9876L13.5454 19.834L11.727 19.3032C11.467 20.0245 11.3395 20.7106 11.3475 21.3488Z" fill="#E8345F"/>
</svg>
