<svg width="27" height="27" viewBox="0 0 27 27" fill="none" xmlns="http://www.w3.org/2000/svg">
<path d="M15.5088 12.1818L12.1951 8.63965L4.77344 16.7033L11.5543 14.4042L14.8679 17.9464L22.2896 9.88272L15.5088 12.1818ZM14.8591 15.7873L11.9798 12.7093L9.74991 13.4652L12.2039 10.799L15.0834 13.877L17.3131 13.121L14.8591 15.7873Z" fill="white" stroke="#0E1D28" stroke-width="0.5"/>
<path d="M22.3808 4.46892C20.0153 2.23198 16.8732 1 13.5332 1C10.1932 1 7.05106 2.23198 4.6856 4.46892C2.30885 6.71658 1 9.70816 1 12.8925C1 16.3339 2.55192 19.5731 5.27099 21.8353V26.0664L9.14764 24.0358C10.5494 24.5332 12.0229 24.785 13.5332 24.785C16.8732 24.785 20.0153 23.5531 22.3808 21.3161C24.7575 19.0685 26.0664 16.0769 26.0664 12.8925C26.0664 9.70816 24.7575 6.71658 22.3808 4.46892ZM13.5332 23.3163C12.0903 23.3163 10.686 23.0579 9.35915 22.5483L9.04934 22.4293L6.73972 23.6389V21.1274L6.4586 20.9069C3.92293 18.9178 2.46873 15.9966 2.46873 12.8925C2.46873 7.14477 7.4322 2.46873 13.5332 2.46873C19.6342 2.46873 24.5976 7.14477 24.5976 12.8925C24.5976 18.6403 19.6342 23.3163 13.5332 23.3163Z" fill="white" stroke="#0E1D28" stroke-width="0.5"/>
</svg>
