<svg width="30" height="35" viewBox="0 0 30 35" fill="none" xmlns="http://www.w3.org/2000/svg">
<path d="M29.2215 9.41794C29.2038 8.48775 29.1869 7.60901 29.1869 6.7589C29.1869 6.09289 28.6471 5.55295 27.981 5.55295C22.8235 5.55295 18.8968 4.07076 15.6237 0.888339C15.1555 0.432973 14.4103 0.433134 13.9423 0.888339C10.6695 4.07076 6.7434 5.55295 1.58628 5.55295C0.920279 5.55295 0.380336 6.09289 0.380336 6.7589C0.380336 7.60917 0.363613 8.48823 0.345765 9.41858C0.18047 18.075 -0.0459261 29.9305 14.388 34.9336C14.516 34.9779 14.6494 35.0001 14.7829 35.0001C14.9164 35.0001 15.05 34.9779 15.1778 34.9336C29.6129 29.9303 29.3868 18.0746 29.2215 9.41794ZM14.7831 32.5144C2.40408 28.0175 2.59124 18.1665 2.75734 9.46457C2.76731 8.94231 2.77696 8.43613 2.78371 7.93992C7.61394 7.73604 11.4765 6.27234 14.7831 3.39189C18.0899 6.27234 21.9532 7.7362 26.7837 7.93992C26.7905 8.43597 26.8001 8.94183 26.8101 9.46376C26.976 18.166 27.163 28.0174 14.7831 32.5144Z" fill="#495660"/>
<path d="M18.9371 13.5846L13.1166 19.4048L10.6328 16.921C10.1618 16.4502 9.39824 16.4502 8.92744 16.921C8.45648 17.3922 8.45648 18.1556 8.92744 18.6266L12.2639 21.963C12.4993 22.1984 12.808 22.3161 13.1166 22.3161C13.4251 22.3161 13.7339 22.1984 13.9693 21.963L20.6424 15.2901C21.1135 14.8192 21.1135 14.0556 20.6425 13.5847C20.1717 13.1138 19.4081 13.1136 18.9371 13.5846Z" fill="#495660"/>
</svg>
