<svg width="27" height="27" viewBox="0 0 27 27" fill="none" xmlns="http://www.w3.org/2000/svg">
<path d="M22.483 4.51693C20.2151 2.24896 17.1997 1 13.9924 1C10.7851 1 7.76971 2.24896 5.50174 4.51693C3.23377 6.78489 1.98486 9.8002 1.98486 13.0075C1.98486 15.0392 2.49916 17.0357 3.47538 18.8042L0.933594 26.0664L8.19564 23.5246C9.96419 24.5007 11.9607 25.0151 13.9924 25.0151C17.1997 25.0151 20.2151 23.7661 22.483 21.4982C24.7509 19.2302 25.9999 16.2149 25.9999 13.0075C25.9999 9.80015 24.7509 6.78484 22.483 4.51693ZM13.9924 23.5448C12.1077 23.5448 10.2578 23.0407 8.64297 22.087L8.34878 21.9133L3.33017 23.6697L5.08668 18.6512L4.91293 18.357C3.95928 16.7421 3.45521 14.8923 3.45521 13.0076C3.45521 7.19731 8.18223 2.47035 13.9924 2.47035C19.8026 2.47035 24.5296 7.19736 24.5296 13.0076C24.5296 18.8178 19.8026 23.5448 13.9924 23.5448Z" fill="white" stroke="#0E1D28" stroke-width="0.5"/>
<path d="M20.4451 15.9077L18.7124 14.175C18.1391 13.6017 17.2063 13.6017 16.633 14.175L15.9702 14.8378C14.3606 13.9647 13.0312 12.6353 12.1581 11.0257L12.8208 10.3628C13.0986 10.0852 13.2515 9.71591 13.2515 9.32318C13.2515 8.93044 13.0985 8.5612 12.8208 8.28351L11.0881 6.55075C10.8104 6.27306 10.4412 6.12012 10.0484 6.12012C9.65563 6.12012 9.28644 6.27306 9.00876 6.55075L7.62257 7.93694C6.84022 8.71928 6.80341 10.0697 7.51892 11.7392C8.14402 13.1977 9.2885 14.8012 10.7416 16.2542C12.1946 17.7073 13.7981 18.8518 15.2566 19.4769C16.0524 19.8179 16.7754 19.988 17.3991 19.988C18.0841 19.988 18.6494 19.7827 19.0588 19.3732L20.445 17.987C20.7228 17.7093 20.8757 17.3401 20.8757 16.9474C20.8757 16.5546 20.7228 16.1854 20.4451 15.9077ZM18.0193 18.3336C17.7098 18.6431 16.8528 18.5613 15.8358 18.1255C14.5452 17.5724 13.1052 16.5386 11.7812 15.2146C10.4573 13.8906 9.42353 12.4507 8.87035 11.16C8.43448 10.1431 8.35282 9.28602 8.66218 8.97656L10.0484 7.59037L11.7812 9.32313L10.3752 10.7291L10.5969 11.1973C11.6751 13.4734 13.5223 15.3206 15.7984 16.3988L16.2666 16.6206L17.6726 15.2146L19.4054 16.9473L18.0193 18.3336Z" fill="white" stroke="#0E1D28" stroke-width="0.5"/>
</svg>
