<?xml version="1.0" encoding="UTF-8"?>
<svg width="90px" height="109px" viewBox="0 0 90 109" version="1.1" xmlns="http://www.w3.org/2000/svg" xmlns:xlink="http://www.w3.org/1999/xlink">
    <title>AEC62D96-3767-4D27-A1C8-EB3A33613118</title>
    <defs>
        <linearGradient x1="100%" y1="50%" x2="0%" y2="50%" id="linearGradient-1">
            <stop stop-color="#F52A04" offset="0%"></stop>
            <stop stop-color="#EE6F57" offset="100%"></stop>
        </linearGradient>
        <linearGradient x1="100%" y1="50%" x2="0%" y2="50%" id="linearGradient-2">
            <stop stop-color="#F52A04" offset="0%"></stop>
            <stop stop-color="#EE6F57" offset="100%"></stop>
        </linearGradient>
        <linearGradient x1="100%" y1="50%" x2="0%" y2="50%" id="linearGradient-3">
            <stop stop-color="#F52A04" offset="0%"></stop>
            <stop stop-color="#EE6F57" offset="100%"></stop>
        </linearGradient>
    </defs>
    <g id="Page-2" stroke="none" stroke-width="1" fill="none" fill-rule="evenodd">
        <g id="Karnataka-Startup-Menu---Logged-In-Company" transform="translate(-1019.000000, -169.000000)">
            <g id="Group-19" transform="translate(626.000000, 86.000000)">
                <g id="certificate" transform="translate(393.000000, 83.000000)">
                    <path d="M90,12.7668379 C90,5.72718359 84.2590968,0 77.2023654,0 L15.9965097,0 C7.17602231,0 0,7.15887305 0,15.9580684 L0,82.7622949 L20.4730143,82.7622949 L20.4730143,109 L35.4033746,101.661021 L50.3335214,109 L50.3335214,82.7622949 L70.8067491,82.7622949 L70.8067491,34.0433398 L90,34.0433398 L90,12.7668379 Z M35.4031612,83.3419961 C29.7892313,83.3419961 25.2220315,78.7857109 25.2220315,73.1854102 C25.2220315,67.5851094 29.7892313,63.0288242 35.4031612,63.0288242 C41.017091,63.0288242 45.5842909,67.5851094 45.5842909,73.1854102 C45.5842909,78.7857109 41.017091,83.3419961 35.4031612,83.3419961 L35.4031612,83.3419961 Z M35.4031612,94.5413203 L26.8748192,98.7333496 L26.8748192,87.3669062 C29.3684053,88.8648047 32.2862319,89.728502 35.4031612,89.728502 C38.5200905,89.728502 41.437917,88.8648047 43.9315031,87.3669062 L43.9315031,98.7333496 L35.4031612,94.5413203 Z M64.4047309,76.3757891 L51.6738907,76.3757891 C51.8770481,75.3428438 51.9863092,74.2769004 51.9863092,73.185623 C51.9863092,64.0636855 44.5471639,56.6425313 35.4031612,56.6425313 C26.2591584,56.6425313 18.8200132,64.0636855 18.8200132,73.185623 C18.8200132,74.2769004 18.9292743,75.3430566 19.1324317,76.3757891 L6.4020183,76.3757891 L6.4020183,15.9580684 C6.4020183,10.6802969 10.7060952,6.38650586 15.9965097,6.38650586 L66.1245264,6.38650586 C65.0329822,8.26526562 64.4045175,10.4435625 64.4045175,12.7668379 L64.4045175,76.3757891 L64.4047309,76.3757891 Z M83.5979817,27.656834 L70.8067491,27.656834 L70.8067491,12.7668379 C70.8067491,9.24882031 73.6757069,6.38650586 77.2025788,6.38650586 C80.7290239,6.38650586 83.5981951,9.24860742 83.5981951,12.7668379 L83.5981951,27.656834 L83.5979817,27.656834 Z" id="Shape" fill="url(#linearGradient-1)"></path>
                    <polygon id="Path" fill="url(#linearGradient-2)" points="15 16 56 16 56 22 15 22"></polygon>
                    <polygon id="Path" fill="url(#linearGradient-2)" points="15 28 56 28 56 34 15 34"></polygon>
                    <polygon id="Path" fill="url(#linearGradient-3)" points="26 44 45 44 45 50 26 50"></polygon>
                </g>
            </g>
        </g>
    </g>
</svg>