<?xml version="1.0" encoding="UTF-8"?>
<svg width="110px" height="110px" viewBox="0 0 110 110" version="1.1" xmlns="http://www.w3.org/2000/svg" xmlns:xlink="http://www.w3.org/1999/xlink">
    <title>D47E9141-6D62-47FE-9274-C87721567949</title>
    <defs>
        <linearGradient x1="100%" y1="50%" x2="0%" y2="50%" id="linearGradient-1">
            <stop stop-color="#F52A04" offset="0%"></stop>
            <stop stop-color="#EE6F57" offset="100%"></stop>
        </linearGradient>
        <linearGradient x1="100%" y1="50%" x2="0%" y2="50%" id="linearGradient-2">
            <stop stop-color="#F52A04" offset="0%"></stop>
            <stop stop-color="#EE6F57" offset="100%"></stop>
        </linearGradient>
        <linearGradient x1="100%" y1="50%" x2="0%" y2="50%" id="linearGradient-3">
            <stop stop-color="#F52A04" offset="0%"></stop>
            <stop stop-color="#EE6F57" offset="100%"></stop>
        </linearGradient>
        <linearGradient x1="100%" y1="50%" x2="0%" y2="50%" id="linearGradient-4">
            <stop stop-color="#F52A04" offset="0%"></stop>
            <stop stop-color="#EE6F57" offset="100%"></stop>
        </linearGradient>
        <linearGradient x1="100%" y1="50%" x2="0%" y2="50%" id="linearGradient-5">
            <stop stop-color="#F52A04" offset="0%"></stop>
            <stop stop-color="#EE6F57" offset="100%"></stop>
        </linearGradient>
        <linearGradient x1="100%" y1="50%" x2="0%" y2="50%" id="linearGradient-6">
            <stop stop-color="#F52A04" offset="0%"></stop>
            <stop stop-color="#EE6F57" offset="100%"></stop>
        </linearGradient>
        <linearGradient x1="100%" y1="50%" x2="0%" y2="50%" id="linearGradient-7">
            <stop stop-color="#F52A04" offset="0%"></stop>
            <stop stop-color="#EE6F57" offset="100%"></stop>
        </linearGradient>
    </defs>
    <g id="Page-2" stroke="none" stroke-width="1" fill="none" fill-rule="evenodd">
        <g id="Karnataka-Startup-Menu---Logged-In-not-registered" transform="translate(-1009.000000, -170.000000)" fill-rule="nonzero">
            <g id="Group-26" transform="translate(626.000000, 86.000000)">
                <g id="Group-36" transform="translate(61.000000, 54.000000)">
                    <g id="Group-35" transform="translate(252.000000, 0.000000)">
                        <g id="Group" transform="translate(125.000000, 85.000000) scale(-1, 1) rotate(-180.000000) translate(-125.000000, -85.000000) translate(70.000000, 30.000000)">
                            <path d="M6.23999219,109.355943 C4.04901386,108.583074 1.08474907,105.448663 0.483304042,103.301806 C-0.161101347,100.940263 -0.161101347,39.5830894 0.483304042,37.2215466 C1.12770943,34.9458782 4.39269674,31.6826555 6.66959578,31.0385984 C9.0753759,30.3945413 100.924624,30.3945413 103.330404,31.0385984 C105.607303,31.6826555 108.872291,34.9458782 109.516696,37.2215466 C110.161101,39.6260265 110.161101,100.940263 109.516696,103.344743 C108.872291,105.620412 105.607303,108.883634 103.330404,109.527691 C102.127514,109.871189 87.7357938,110 54.7851982,110 C15.5194298,109.957063 7.70064441,109.871189 6.23999219,109.355943 Z M102.471197,102.486 L103.545206,101.455509 L103.545206,70.2831449 L103.545206,39.1107808 L102.471197,38.0802895 L101.440148,37.0068609 L55,37.0068609 L8.55985159,37.0068609 L7.52880297,38.0802895 L6.45479399,39.1107808 L6.45479399,70.2831449 L6.45479399,101.455509 L7.52880297,102.486 L8.55985159,103.559429 L55,103.559429 L101.440148,103.559429 L102.471197,102.486 Z" id="Shape" fill="url(#linearGradient-1)"></path>
                            <path d="M27.0529951,96.9446302 C20.5990286,94.4128582 17.8208311,86.9033648 20.9409606,80.5953904 L22.0522396,78.2781753 L20.6845116,77.2053906 C15.7264976,73.3862768 13.1620076,68.1939986 13.1192661,61.8431128 C13.1192661,59.5258977 13.2902321,58.9680496 14.1878036,58.1098218 L15.2135996,57.037037 L31.2844037,57.037037 L47.3552078,57.037037 L48.3810038,58.1098218 C49.2785753,58.9680496 49.4495413,59.5258977 49.4495413,61.8431128 C49.4067998,68.1939986 46.8423098,73.3862768 41.8842957,77.2053906 L40.5165677,78.2781753 L41.6278467,80.552479 C46.4148948,90.2933647 37.0117647,100.849567 27.0529951,96.9446302 Z M33.6779277,90.7224786 C36.3706422,89.3064027 37.3536967,85.9164029 35.7722612,83.3417194 C33.6351862,79.8229854 28.9336212,79.8229854 26.7965461,83.3417194 C25.2578521,85.8734915 26.0271991,88.9202002 28.6344307,90.5079216 C30.3013492,91.537795 31.9682677,91.5807064 33.6779277,90.7224786 Z M34.8746897,73.515011 C37.9948192,72.6138718 41.0294657,69.7388086 42.1834862,66.6491885 C42.6536427,65.3618468 43.0383162,64.1174165 43.0383162,63.9028595 C43.0383162,63.6453912 38.5504587,63.4737456 31.2844037,63.4737456 C24.0183486,63.4737456 19.5304911,63.6453912 19.5304911,63.9028595 C19.5304911,65.3618468 21.4966001,69.0951378 23.0780356,70.6828592 C26.3263896,73.9012135 30.3868322,74.8881755 34.8746897,73.515011 Z" id="Shape" fill="url(#linearGradient-2)"></path>
                            <path d="M57.5760502,96.7592593 C56.9811685,96.2296296 56.5137615,95.2925926 56.5137615,94.7222222 C56.5137615,94.1518519 56.9811685,93.2148148 57.5760502,92.6851852 L58.5958474,91.6666667 L76.6972477,91.6666667 L94.798648,91.6666667 L95.8184452,92.6851852 C96.4133269,93.2148148 96.8807339,94.1518519 96.8807339,94.7222222 C96.8807339,95.2925926 96.4133269,96.2296296 95.8184452,96.7592593 L94.798648,97.7777778 L76.6972477,97.7777778 L58.5958474,97.7777778 L57.5760502,96.7592593 Z" id="Path" fill="url(#linearGradient-3)"></path>
                            <path d="M57.5760502,83.4649123 L56.5137615,82.4356725 L56.5137615,64.1666667 L56.5137615,45.8976608 L57.5760502,44.8684211 L58.5958474,43.7962963 L76.6972477,43.7962963 L94.798648,43.7962963 L95.8184452,44.8684211 L96.8807339,45.8976608 L96.8807339,64.1666667 L96.8807339,82.4356725 L95.8184452,83.4649123 L94.798648,84.537037 L76.6972477,84.537037 L58.5958474,84.537037 L57.5760502,83.4649123 Z M90.5070014,64.1666667 L90.5070014,50.2290448 L76.6972477,50.2290448 L62.887494,50.2290448 L62.887494,64.1666667 L62.887494,78.1042885 L76.6972477,78.1042885 L90.5070014,78.1042885 L90.5070014,64.1666667 Z" id="Shape" fill="url(#linearGradient-4)"></path>
                            <path d="M82.3309937,71.8673102 C81.8569537,71.6146843 79.8746045,69.8884073 77.9353498,68.0358174 L74.4015968,64.6674721 L72.6778149,66.1832275 C70.6092766,68.0358174 69.1440619,68.1621304 67.6788473,66.6884793 C65.8688762,64.9622023 66.2136326,63.7832814 69.7473856,60.3307275 C74.4446914,55.6992527 74.1861241,55.6571483 80.8657791,62.0991088 C83.925492,65.0885153 86.5542595,67.9516088 86.7266377,68.4989649 C87.0282995,69.7620944 86.2095031,71.3199541 84.8304775,71.9094145 C83.5807356,72.4567707 83.4083575,72.4567707 82.3309937,71.8673102 Z" id="Path" fill="url(#linearGradient-5)"></path>
                            <path d="M14.1878036,48.8888889 C13.5894226,48.3592593 13.1192661,47.4222222 13.1192661,46.8518519 C13.1192661,46.2814815 13.5894226,45.3444444 14.1878036,44.8148148 L15.2135996,43.7962963 L31.2844037,43.7962963 L47.3552078,43.7962963 L48.3810038,44.8148148 C48.9793848,45.3444444 49.4495413,46.2814815 49.4495413,46.8518519 C49.4495413,47.4222222 48.9793848,48.3592593 48.3810038,48.8888889 L47.3552078,49.9074074 L31.2844037,49.9074074 L15.2135996,49.9074074 L14.1878036,48.8888889 Z" id="Path" fill="url(#linearGradient-6)"></path>
                            <path d="M11.4890006,18.928777 C5.98452121,16.4990846 1.12009755,14.0693923 0.736064106,13.6005043 C-0.245354702,12.4495974 -0.245354702,11.0003072 0.736064106,9.84940025 C1.12009755,9.38051225 6.02719159,6.95081988 11.6170118,4.47850132 L21.7298925,0.002752207 L62.6081194,0.002752207 C108.39344,0.002752207 104.97981,-0.210378703 107.668044,3.11446349 L108.990826,4.77688459 L108.990826,11.7249523 L108.990826,18.6730199 L107.668044,20.335441 C104.97981,23.7029094 108.39344,23.4471523 62.4801083,23.4045261 L21.5165406,23.4045261 L11.4890006,18.928777 Z M87.8689861,11.7249523 L87.8689861,6.39667951 L56.7196066,6.39667951 L25.570227,6.39667951 L25.570227,11.7249523 L25.570227,17.053225 L56.7196066,17.053225 L87.8689861,17.053225 L87.8689861,11.7249523 Z M102.590268,11.7249523 L102.590268,6.60981042 L98.4512411,6.48193187 L94.2695436,6.35405333 L94.2695436,11.7249523 L94.2695436,17.0958512 L98.4512411,16.9679726 L102.590268,16.8400941 L102.590268,11.7249523 Z M19.0843288,10.0625312 L18.9563176,8.18697915 L15.4146758,9.80677407 C13.4518382,10.6592977 11.8730341,11.5544475 11.8730341,11.7249523 C11.8730341,11.895457 13.4518382,12.7906068 15.4146758,13.6431305 L18.9563176,15.2629254 L19.0843288,13.6005043 C19.1696695,12.7053544 19.1696695,11.1281857 19.0843288,10.0625312 Z" id="Shape" fill="url(#linearGradient-7)"></path>
                        </g>
                    </g>
                </g>
            </g>
        </g>
    </g>
</svg>