<?xml version="1.0" encoding="UTF-8"?>
<svg width="30px" height="25px" viewBox="0 0 30 25" version="1.1" xmlns="http://www.w3.org/2000/svg" xmlns:xlink="http://www.w3.org/1999/xlink">
    <title>5D93FF1F-AE02-4752-8023-8DF1863A8DA5</title>
    <g id="Page-1" stroke="none" stroke-width="1" fill="none" fill-rule="evenodd">
        <g id="Event-detail-" transform="translate(-842.000000, -941.000000)" fill="#FFFFFF" fill-rule="nonzero">
            <g id="Group-31" transform="translate(812.000000, 526.000000)">
                <g id="folder-(1)" transform="translate(30.000000, 415.000000)">
                    <path d="M28.745,8.25 L27,8.25 L27,5.116 C27,4.3625 26.387,3.75 25.634,3.75 L13.2575,3.75 L10.7575,0.25 L1.366,0.25 C0.613,0.25 0,0.863 0,1.616 L0,23.4595 L0.003,23.4595 C0.0005,23.741 0.088,24.0165 0.264,24.247 C0.509,24.567 0.88,24.75 1.2825,24.75 L23.662,24.75 C24.24,24.75 24.749,24.3605 24.887,23.8435 L30,9.8245 L30,9.736 C30,8.875 29.472,8.25 28.745,8.25 Z M1,1.616 C1,1.414 1.1645,1.25 1.366,1.25 L10.2425,1.25 L12.7425,4.75 L25.6335,4.75 C25.8355,4.75 25.9995,4.914 25.9995,5.116 L25.9995,8.25 L6.3655,8.25 C6.2935,8.25 6.222,8.256 6.1525,8.268 C5.666,8.3495 5.2615,8.7045 5.141,9.156 L1,20.4495 L1,1.616 Z M23.9345,23.5415 C23.9015,23.664 23.789,23.75 23.662,23.75 L1.2825,23.75 C1.161,23.75 1.09,23.6805 1.0585,23.639 C1.027,23.598 0.9785,23.511 0.997,23.435 L6.0925,9.4585 C6.1255,9.336 6.238,9.25 6.365,9.25 L27,9.25 L28.745,9.25 C28.935,9.25 28.9835,9.523 28.996,9.6595 L23.9345,23.5415 Z" id="Shape"></path>
                </g>
            </g>
        </g>
    </g>
</svg>