<?xml version="1.0" encoding="UTF-8"?>
<svg width="30px" height="21px" viewBox="0 0 30 21" version="1.1" xmlns="http://www.w3.org/2000/svg" xmlns:xlink="http://www.w3.org/1999/xlink">
    <title>4ADACC16-65E4-49CF-B57B-409F6A8718C7</title>
    <g id="Page-1" stroke="none" stroke-width="1" fill="none" fill-rule="evenodd">
        <g id="Event-detail-" transform="translate(-842.000000, -1141.000000)" fill="#FFFFFF" fill-rule="nonzero">
            <g id="Group-31" transform="translate(812.000000, 526.000000)">
                <g id="mail" transform="translate(30.000000, 615.000000)">
                    <path d="M28.4615039,0.0195117187 L1.53849609,0.0195117187 C0.692285156,0.0195117187 0,0.711796875 0,1.55794922 L0,18.4810547 C0,19.3271484 0.692285156,20.0195508 1.53849609,20.0195508 L28.4615625,20.0195508 C29.3076563,20.0195508 30.0000586,19.3272656 30.0000586,18.4810547 L30.0000586,1.55794922 C30.0000586,0.711796875 29.3077148,0.0195117187 28.4615039,0.0195117187 Z M27.8841797,1.17328125 L15.885,10.1733984 C15.6692578,10.3375781 15.3380859,10.440293 14.9999414,10.4387862 C14.6618555,10.440293 14.3307422,10.3375781 14.1149414,10.1733984 L2.11576172,1.17328125 L27.8841797,1.17328125 Z M21.4746094,10.7672461 L28.0130859,18.8442187 C28.0196484,18.8523047 28.0276758,18.858457 28.0346484,18.8657813 L1.96535156,18.8657813 C1.97226563,18.8581055 1.98035156,18.8523047 1.98691406,18.8442187 L8.52539062,10.7672461 C8.72572266,10.5195703 8.68775391,10.1564648 8.43960937,9.95566406 C8.19193359,9.75533203 7.82882812,9.79330078 7.6284375,10.0410352 L1.15382813,18.0391406 L1.15382813,1.89445313 L13.4230078,11.0963672 C13.8841992,11.4398437 14.445293,11.5910156 14.9998828,11.5925391 C15.5537109,11.5913672 16.1152734,11.4401953 16.5767578,11.0963672 L28.8459375,1.89445313 L28.8459375,18.0390234 L22.3715039,10.0410352 C22.1711133,9.79335938 21.8076563,9.75527344 21.560332,9.95566406 C21.3122461,10.1559961 21.2741602,10.5195703 21.4746094,10.7672461 Z" id="Shape"></path>
                </g>
            </g>
        </g>
    </g>
</svg>