<?xml version="1.0" encoding="UTF-8"?>
<svg width="30px" height="30px" viewBox="0 0 30 30" version="1.1" xmlns="http://www.w3.org/2000/svg" xmlns:xlink="http://www.w3.org/1999/xlink">
    <!-- Generator: Sketch 63.1 (92452) - https://sketch.com -->
    <title>boost (2)</title>
    <desc>Created with Sketch.</desc>
    <g id="Page-1" stroke="none" stroke-width="1" fill="none" fill-rule="evenodd">
        <g id="About-us" transform="translate(-100.000000, -2545.000000)" fill="#FFFFFF" fill-rule="nonzero">
            <g id="Group-17" transform="translate(70.000000, 2515.000000)">
                <g id="boost-(2)" transform="translate(30.000000, 30.000000)">
                    <path d="M24.5353424,16.0148008 C24.3715778,16.0146079 24.2222814,15.9209793 24.1507972,15.7736398 C24.079313,15.6263004 24.0981758,15.4510864 24.1993826,15.3223383 C24.4608749,14.9889462 24.7129518,14.6555542 24.9551853,14.3217342 C25.0951084,14.134709 25.3591443,14.0944146 25.5484827,14.2311914 C25.7378211,14.3679682 25.782524,14.6312936 25.6489317,14.8228922 C25.4015626,15.1652717 25.1413541,15.5076512 24.8725862,15.8500306 C24.7915368,15.9539489 24.6671302,16.0147313 24.5353424,16.0148008 L24.5353424,16.0148008 Z" id="Path"></path>
                    <path d="M13.2372471,24.6812877 C13.1237506,24.6812877 13.0149114,24.6361515 12.9346693,24.5558852 L5.40232042,17.0235364 C5.27296299,16.8941929 5.24011497,16.6969327 5.32057732,16.5326498 C5.91142762,15.3241528 6.56248015,14.1460305 7.27128448,13.0027172 C8.20773667,11.4713014 9.26596979,10.0177694 10.4357269,8.65620953 C14.9624118,3.40111229 19.8922485,1.35325495 23.2308766,0.56064642 C25.2770104,0.0314790519 27.4017302,-0.124801515 29.5032689,0.0992900529 C29.6864518,0.128375869 29.8300501,0.27214699 29.8589156,0.455364726 C29.8940095,0.676199498 30.6776305,5.93814433 27.313324,12.1737308 C27.1966609,12.3722848 26.9437968,12.4429231 26.7411211,12.3335773 C26.5384454,12.2242315 26.4586341,11.9741111 26.5605171,11.7675832 C28.4045622,8.45834849 29.2679412,4.69234728 29.049616,0.910301477 C27.2855057,0.757514628 18.5852148,0.507149624 11.0845361,9.21557203 C9.94449939,10.542833 8.91317315,11.9597258 8.0005528,13.4525183 C7.37057453,14.4668175 6.77440624,15.5354695 6.2257431,16.6345077 L13.322842,23.7337464 C14.424448,23.1837994 15.4931,22.5876311 16.5035475,21.9597927 C17.996074,21.0466147 19.4129344,20.0151689 20.7404937,18.8753814 C21.236088,18.4508309 21.7351062,17.9903305 22.2255648,17.5058635 C22.3941579,17.3442378 22.6611983,17.3476214 22.8256422,17.5134667 C22.9900861,17.6793121 22.9912033,17.9463717 22.8281527,18.1135871 C22.3231429,18.6143171 21.8087177,19.0893686 21.2990003,19.5259025 C19.9369743,20.6950061 18.4833307,21.7529301 16.9520646,22.689489 C15.8091749,23.3980042 14.6314803,24.0487715 13.423416,24.6393402 C13.3653516,24.6672816 13.3016838,24.6816252 13.2372471,24.6812877 L13.2372471,24.6812877 Z" id="Path"></path>
                    <path d="M28.4692828,8.84580231 C28.3557862,8.84580231 28.246947,8.80067201 28.1667049,8.72040568 L21.237372,1.7915007 C21.0701446,1.62439155 21.0700488,1.35335829 21.237158,1.18613096 C21.4042671,1.01890364 21.6753004,1.01880783 21.8425277,1.18591697 L28.7722887,8.11524993 C28.8947051,8.23770322 28.9312757,8.42185416 28.8649395,8.58179193 C28.7986033,8.7417297 28.6424318,8.8459384 28.4692828,8.84580231 L28.4692828,8.84580231 Z" id="Path"></path>
                    <path d="M19.4540028,14.1205865 C17.8168413,14.1203795 16.3839258,13.0205956 15.9603714,11.4391724 C15.5368171,9.85774916 16.2282342,8.18900285 17.6461346,7.37055556 C19.0640351,6.55210827 20.8548759,6.78803377 22.0124335,7.94577208 C23.0473378,8.98024641 23.3569576,10.5363808 22.7968497,11.8882103 C22.2367418,13.2400398 20.9172743,14.1211892 19.4540028,14.1205865 L19.4540028,14.1205865 Z M19.4540028,7.74376296 C18.138096,7.74539629 17.0065274,8.67620586 16.7511448,9.96709435 C16.4957622,11.2579829 17.1876696,12.5495393 18.4038306,13.0520984 C19.6199917,13.5546575 21.0218012,13.1282961 21.7521844,12.033694 C22.4825676,10.9390919 22.3381703,9.48100983 21.4072778,8.55092784 C20.8894434,8.03281021 20.1865301,7.74234252 19.4540028,7.74376296 L19.4540028,7.74376296 Z" id="Shape"></path>
                    <path d="M0.930844246,13.8359833 C0.805294385,13.8359833 0.68607437,13.7808656 0.604755026,13.6852103 C0.523435683,13.589555 0.488220019,13.463017 0.508433547,13.339105 C0.663894836,12.379824 1.02335006,11.4650594 1.56253441,10.6565617 C3.61199429,7.51249094 7.79998034,6.58552619 10.9848181,8.57104263 C11.1760782,8.69923141 11.2316432,8.95576456 11.1105676,9.15160511 C10.9894921,9.34744567 10.7351735,9.41239788 10.535017,9.29859905 C7.7430141,7.55661805 4.07034273,8.37012427 2.27511173,11.1281895 C1.9774709,11.574649 1.74138491,12.0592011 1.57323377,12.5687512 C3.58817672,11.6497932 5.92224015,11.7566689 7.84477013,12.855922 C7.97764068,12.9316077 8.06004027,13.0724299 8.06092976,13.225342 C8.06181925,13.3782542 7.98106351,13.5200253 7.84908244,13.5972517 C7.71710138,13.6744781 7.55394606,13.6754272 7.42107551,13.5997414 C5.46699346,12.4819271 3.05283383,12.5462959 1.16109446,13.7666514 C1.09254748,13.8112917 1.01264302,13.8353521 0.930844246,13.8359833 L0.930844246,13.8359833 Z" id="Path"></path>
                    <path d="M16.5501967,29.455348 C16.3937607,29.4552317 16.2498455,29.3697829 16.174867,29.2324859 C16.0998886,29.0951889 16.1057948,28.9279219 16.1902703,28.7962552 C17.4106056,26.9043535 17.4749729,24.4900853 16.3571803,22.5358462 C16.2401802,22.3304461 16.3118426,22.0690892 16.5172427,21.9520892 C16.7226428,21.8350891 16.9839997,21.9067515 17.1009997,22.1121516 C18.2006714,24.03456 18.3075565,26.3688278 17.3881705,28.3836879 C17.8971463,28.215823 18.3811329,27.9800199 18.8270203,27.6826659 C21.5848217,25.8874231 22.3991084,22.2155227 20.6587506,19.4227607 C20.5703594,19.2926148 20.5604993,19.1244655 20.6330737,18.9848808 C20.7056482,18.845296 20.8489549,18.756783 21.006261,18.7543327 C21.1635671,18.7519825 21.3095077,18.836082 21.386307,18.9733876 C23.3728015,22.158143 22.4461331,26.3468894 19.3016439,28.3965272 C18.4937673,28.9352327 17.5797421,29.2943922 16.6212405,29.4497721 C16.5977622,29.4536574 16.5739936,29.4555188 16.5501967,29.455348 L16.5501967,29.455348 Z" id="Path"></path>
                    <path d="M6.27282028,29.9582056 C6.09974921,29.9582056 5.94373622,29.8538965 5.87750979,29.6939976 C5.81128335,29.5340987 5.84788115,29.3500516 5.97024241,29.2276534 L9.73641683,25.461479 C9.90434493,25.2992886 10.1712751,25.3016081 10.3363592,25.4666923 C10.5014434,25.6317765 10.503763,25.8987066 10.3415726,26.0666347 L6.57539816,29.8328091 C6.49515608,29.9130755 6.38631687,29.9582056 6.27282028,29.9582056 L6.27282028,29.9582056 Z" id="Path"></path>
                    <path d="M0.996752299,29.3894277 C0.823681221,29.3894277 0.667668236,29.2851186 0.601441802,29.1252197 C0.535215367,28.9653208 0.571813163,28.7812737 0.694174422,28.6588755 L4.46034884,24.892701 C4.56780228,24.7814463 4.72692461,24.7368274 4.87655705,24.7759936 C5.02618948,24.8151599 5.14304573,24.9320161 5.18221199,25.0816486 C5.22137825,25.231281 5.17675935,25.3904033 5.0655046,25.4978568 L1.29933018,29.2640312 C1.21908809,29.3442975 1.11024888,29.3894277 0.996752299,29.3894277 L0.996752299,29.3894277 Z" id="Path"></path>
                    <path d="M0.427974366,24.1129333 C0.254903288,24.1129333 0.0988903034,24.0086226 0.0326638689,23.8487237 C-0.0335625655,23.6888248 0.00303523034,23.5047777 0.125396489,23.3823795 L3.89157091,19.6162051 C3.99902435,19.5049503 4.15814668,19.4603314 4.30777912,19.4994977 C4.45741155,19.5386639 4.57426779,19.6555202 4.61343406,19.8051526 C4.65260032,19.9547851 4.60798142,20.1139074 4.49672666,20.2213608 L0.730552243,23.9875352 C0.650498316,24.0680826 0.541536755,24.1132392 0.427974366,24.1129333 L0.427974366,24.1129333 Z" id="Path"></path>
                </g>
            </g>
        </g>
    </g>
</svg>