<?xml version="1.0" encoding="UTF-8"?>
<svg width="30px" height="30px" viewBox="0 0 30 30" version="1.1" xmlns="http://www.w3.org/2000/svg" xmlns:xlink="http://www.w3.org/1999/xlink">
    <!-- Generator: Sketch 63.1 (92452) - https://sketch.com -->
    <title>capital-venture</title>
    <desc>Created with Sketch.</desc>
    <g id="Page-1" stroke="none" stroke-width="1" fill="none" fill-rule="evenodd">
        <g id="About-us" transform="translate(-490.000000, -2758.000000)" fill="#FFFFFF" fill-rule="nonzero">
            <g id="Group-17-Copy-4" transform="translate(460.000000, 2728.000000)">
                <g id="capital-venture" transform="translate(30.000000, 30.000000)">
                    <path d="M12.303375,29 L4.696625,29 C3.32386508,28.9999904 2.0641592,28.2392726 1.42506545,27.0243532 C0.785971695,25.8094339 0.872750644,24.3404138 1.6504375,23.2091875 L6.263,16.5 L10.737,16.5 L14.713,22.28325 L15.537,21.71675 L11.5,15.8446875 L11.5,14.166625 L12.64375,12.641625 C12.8742963,12.3329315 12.9992209,11.9581576 13,11.572875 C12.9999249,10.9556044 12.6802783,10.3823736 12.1551932,10.0578606 C11.6301082,9.7333475 10.9744441,9.70381672 10.4223125,9.9798125 L8.5,10.941 L6.5776875,9.979875 C6.02555585,9.70387922 5.36989179,9.73341 4.84480675,10.0579231 C4.31972172,10.3824361 4.00007512,10.9556669 4,11.5729375 C4.00077906,11.9582201 4.12570368,12.332994 4.35625,12.6416875 L5.5,14.1666875 L5.5,15.84475 L0.8264375,22.6426875 C-0.161709478,24.0799048 -0.272013661,25.9463547 0.539971686,27.4899569 C1.35195703,29.0335591 2.95248396,30 4.696625,30 L12.303375,30 C12.3761875,30 12.4500625,29.9983125 12.5229375,29.9949375 L12.4770625,28.996 C12.419375,28.9986875 12.3609375,29 12.303375,29 L12.303375,29 Z M6.5,15.5 L6.5,14.5 L10.5,14.5 L10.5,15.5 L6.5,15.5 Z M5,11.5729375 C5,11.3022277 5.140243,11.0508387 5.37052252,10.9085181 C5.60080204,10.7661975 5.88834629,10.7532319 6.1305,10.87425 L8.276375,11.9471875 C8.41714869,12.0175815 8.58285131,12.0175815 8.723625,11.9471875 L10.8695,10.87425 C11.1116537,10.7532319 11.399198,10.7661975 11.6294775,10.9085181 C11.859757,11.0508387 12,11.3022277 12,11.5729375 C11.9996419,11.7419184 11.9448521,11.9062879 11.84375,12.0416875 L10.75,13.5 L6.25,13.5 L5.15625,12.0416875 C5.0551479,11.9062879 5.00035807,11.7419184 5,11.5729375 L5,11.5729375 Z" id="Shape"></path>
                    <polygon id="Path" points="5 23 6 23 6 24 5 24"></polygon>
                    <polygon id="Path" points="11 23 12 23 12 24 11 24"></polygon>
                    <path d="M22.5,24.4999998 C22.49907,23.6719584 21.8280416,23.00093 21,22.9999998 L15,22.9999998 C14.503002,22.999755 14.0381924,23.2458495 13.7590275,23.6570356 C13.4798626,24.0682217 13.4226394,24.5910371 13.60625,25.052875 C12.9536957,25.2308812 12.5010021,25.8236027 12.5010021,26.4999998 C12.5010021,27.1763973 12.9536957,27.7691188 13.60625,27.947125 C13.4226394,28.4089629 13.4798626,28.9317783 13.7590275,29.3429644 C14.0381924,29.7541505 14.503002,30.000245 15,29.9999998 L21,29.9999998 C21.7512708,29.9994987 22.3862987,29.4432967 22.485788,28.6986424 C22.5852774,27.9539882 22.1185389,27.2505849 21.39375,27.052875 C21.5351947,26.6978616 21.5351947,26.3021384 21.39375,25.947125 C22.0462079,25.7687618 22.4990387,25.1763977 22.5,24.4999998 L22.5,24.4999998 Z M14,26 L20,26 C20.2761424,26 20.5,26.2238576 20.5,26.5 C20.5,26.7761424 20.2761424,27 20,27 L14,27 C13.7238576,27 13.5,26.7761424 13.5,26.5 C13.5,26.2238576 13.7238576,26 14,26 Z M21,29 L15,29 C14.7238576,29 14.5,28.7761424 14.5,28.5 C14.5,28.2238576 14.7238576,28 15,28 L21,28 C21.2761424,28 21.5,28.2238576 21.5,28.5 C21.5,28.7761424 21.2761424,29 21,29 Z M21,25 L15,25 C14.7238576,25 14.5,24.7761424 14.5,24.5 C14.5,24.2238576 14.7238576,24 15,24 L21,24 C21.2761424,24 21.5,24.2238576 21.5,24.5 C21.5,24.7761424 21.2761424,25 21,25 Z" id="Shape"></path>
                    <path d="M20.8915625,4.988125 L25,5.9010625 L25,10.5 L26,10.5 L26,5.5 C26,5.26563056 25.8372288,5.06270387 25.6084375,5.011875 L25,4.8766875 L25,3 L24,3 L24,4.6544375 L23,4.43225 L23,2 L22,2 L22,4.21 L21.1084375,4.011875 L20.8915625,4.988125 Z" id="Path"></path>
                    <polygon id="Path" points="10 4 12 4 12 5 10 5"></polygon>
                    <polygon id="Path" points="13 4 15 4 15 5 13 5"></polygon>
                    <polygon id="Path" points="16 4 18 4 18 5 16 5"></polygon>
                    <polygon id="Path" points="10 6 12 6 12 7 10 7"></polygon>
                    <polygon id="Path" points="13 6 15 6 15 7 13 7"></polygon>
                    <polygon id="Path" points="16 6 18 6 18 7 16 7"></polygon>
                    <polygon id="Path" points="13 8 15 8 15 9 13 9"></polygon>
                    <polygon id="Path" points="10 8 12 8 12 9 10 9"></polygon>
                    <polygon id="Path" points="16 8 18 8 18 9 16 9"></polygon>
                    <polygon id="Path" points="14 10 15 10 15 11 14 11"></polygon>
                    <polygon id="Path" points="16 10 18 10 18 11 16 11"></polygon>
                    <polygon id="Path" points="14 12 15 12 15 13 14 13"></polygon>
                    <polygon id="Path" points="16 12 18 12 18 13 16 13"></polygon>
                    <polygon id="Path" points="14 14 15 14 15 15 14 15"></polygon>
                    <polygon id="Path" points="16 14 18 14 18 15 16 15"></polygon>
                    <polygon id="Path" points="14 16 15 16 15 17 14 17"></polygon>
                    <polygon id="Path" points="16 16 18 16 18 17 16 17"></polygon>
                    <polygon id="Path" points="16 18 18 18 18 19 16 19"></polygon>
                    <polygon id="Path" points="24.5 14 26.5 14 26.5 15 24.5 15"></polygon>
                    <polygon id="Path" points="24.5 16 26.5 16 26.5 17 24.5 17"></polygon>
                    <polygon id="Path" points="24.5 18 26.5 18 26.5 19 24.5 19"></polygon>
                    <polygon id="Path" points="24.5 20 26.5 20 26.5 21 24.5 21"></polygon>
                    <polygon id="Path" points="24.5 22 26.5 22 26.5 23 24.5 23"></polygon>
                    <polygon id="Path" points="24.5 24 26.5 24 26.5 25 24.5 25"></polygon>
                    <polygon id="Path" points="24.5 26 26.5 26 26.5 27 24.5 27"></polygon>
                    <polygon id="Path" points="21.5 14 23.5 14 23.5 15 21.5 15"></polygon>
                    <polygon id="Path" points="21.5 16 23.5 16 23.5 17 21.5 17"></polygon>
                    <polygon id="Path" points="21.5 18 23.5 18 23.5 19 21.5 19"></polygon>
                    <polygon id="Path" points="21.5 20 23.5 20 23.5 21 21.5 21"></polygon>
                    <path d="M7.5,3 L8,3 L8,9.5 L9,9.5 L9,3 L19,3 L19,22 L20,22 L20,3 L20.5,3 C20.7761424,3 21,2.77614237 21,2.5 L21,0.5 C21,0.223857625 20.7761424,0 20.5,0 L7.5,0 C7.22385763,0 7,0.223857625 7,0.5 L7,2.5 C7,2.77614237 7.22385763,3 7.5,3 Z M8,1 L20,1 L20,2 L8,2 L8,1 Z" id="Shape"></path>
                    <path d="M28.5,29 L28.5,12 C28.5,11.7238576 28.2761424,11.5 28,11.5 L21,11.5 L21,12.5 L27.5,12.5 L27.5,29 L23,29 L23,30 L30,30 L30,29 L28.5,29 Z" id="Path"></path>
                    <polygon id="Path" points="23 9 24 9 24 10 23 10"></polygon>
                    <polygon id="Path" points="21 9 22 9 22 10 21 10"></polygon>
                    <polygon id="Path" points="23 7 24 7 24 8 23 8"></polygon>
                    <polygon id="Path" points="21 7 22 7 22 8 21 8"></polygon>
                </g>
            </g>
        </g>
    </g>
</svg>