<?xml version="1.0" encoding="UTF-8"?>
<svg width="23px" height="30px" viewBox="0 0 23 30" version="1.1" xmlns="http://www.w3.org/2000/svg" xmlns:xlink="http://www.w3.org/1999/xlink">
    <!-- Generator: Sketch 63.1 (92452) - https://sketch.com -->
    <title>placeholder</title>
    <desc>Created with Sketch.</desc>
    <g id="Page-1" stroke="none" stroke-width="1" fill="none" fill-rule="evenodd">
        <g id="About-us" transform="translate(-104.000000, -2758.000000)" fill="#FFFFFF" fill-rule="nonzero">
            <g id="Group-17-Copy-3" transform="translate(70.000000, 2728.000000)">
                <g id="placeholder" transform="translate(34.000000, 30.000000)">
                    <path d="M11.4257812,0 C5.12560547,0 0,5.12560547 0,11.4257812 C0,15.4928906 1.23720703,17.1239063 7.18248047,24.9615234 C8.21449219,26.3220117 9.38425781,27.8640234 10.7226562,29.6484375 C10.8886523,29.8697461 11.1491602,30 11.4258398,30 C11.7025195,30 11.9629687,29.8696875 12.1289648,29.6483203 C13.4595117,27.8735156 14.6241797,26.3373633 15.6517969,24.9820313 C21.6113672,17.1216211 22.8515625,15.4858594 22.8515625,11.4257812 C22.8515625,5.12560547 17.725957,0 11.4257812,0 Z M14.2511133,23.9200195 C13.4071289,25.0331836 12.4708594,26.2681055 11.4256055,27.6576562 C10.3732031,26.2591992 9.43160156,25.0178906 8.58292969,23.8991016 C2.79984375,16.2753516 1.7578125,14.9016211 1.7578125,11.4257812 C1.7578125,6.09486328 6.09486328,1.7578125 11.4257812,1.7578125 C16.7566992,1.7578125 21.09375,6.09486328 21.09375,11.4257812 C21.09375,14.8948242 20.0490234,16.2727734 14.2511133,23.9200195 Z" id="Shape"></path>
                    <path d="M11.4257812,5.2734375 C8.03337891,5.2734375 5.2734375,8.03337891 5.2734375,11.4257812 C5.2734375,14.8181836 8.03337891,17.578125 11.4257812,17.578125 C14.8181836,17.578125 17.578125,14.8181836 17.578125,11.4257812 C17.578125,8.03337891 14.8181836,5.2734375 11.4257812,5.2734375 Z M11.4257812,15.8203125 C9.00263672,15.8203125 7.03125,13.8489258 7.03125,11.4257812 C7.03125,9.00263672 9.00263672,7.03125 11.4257812,7.03125 C13.8489258,7.03125 15.8203125,9.00263672 15.8203125,11.4257812 C15.8203125,13.8489258 13.8489258,15.8203125 11.4257812,15.8203125 Z" id="Shape"></path>
                </g>
            </g>
        </g>
    </g>
</svg>