<?xml version="1.0" encoding="UTF-8"?>
<svg width="30px" height="30px" viewBox="0 0 30 30" version="1.1" xmlns="http://www.w3.org/2000/svg" xmlns:xlink="http://www.w3.org/1999/xlink">
    <!-- Generator: Sketch 63.1 (92452) - https://sketch.com -->
    <title>rupees</title>
    <desc>Created with Sketch.</desc>
    <g id="Page-1" stroke="none" stroke-width="1" fill="none" fill-rule="evenodd">
        <g id="About-us" transform="translate(-880.000000, -2546.000000)" fill="#FFFFFF" fill-rule="nonzero">
            <g id="Group-17-Copy-2" transform="translate(850.000000, 2515.000000)">
                <g id="rupees" transform="translate(30.000000, 31.000000)">
                    <path d="M15.3175316,1.20031497 C16.8982324,1.19830549 18.4681157,1.46020231 19.9609247,1.97528826 C20.1654422,2.04729315 20.393623,2.00509499 20.5582511,1.86510408 C20.7228793,1.72477838 20.7992776,1.50775906 20.7583741,1.29643312 C20.7174706,1.08510718 20.5653501,0.911625644 20.3598184,0.841965121 C18.7388902,0.282671536 17.0341267,-0.00199891645 15.3175316,0 C6.87146448,0 0,6.80731736 0,15.1752877 C-0.0023529782,16.9486169 0.310001057,18.7085499 0.922877548,20.374709 C1.037475,20.686172 1.38532381,20.8462572 1.69970618,20.7327239 C2.01408854,20.6191907 2.17567426,20.274572 2.06107681,19.9631091 C1.49687887,18.4289031 1.20954014,16.8082912 1.21156846,15.1752877 C1.21156846,7.46942722 7.53944241,1.20031497 15.3175316,1.20031497 Z" id="Path"></path>
                    <path d="M18.4615385,9.81550416 C18.4615385,9.49246426 18.2054475,9.23076923 17.8893253,9.23076923 L9.8029824,9.23076923 C9.48686021,9.23076923 9.23076923,9.49246426 9.23076923,9.81550416 C9.23076923,10.1382179 9.48686021,10.4002391 9.8029824,10.4002391 L12.1167417,10.4002391 C13.4958649,10.4018707 14.6830794,11.3951368 14.9570521,12.776051 L9.8029824,12.776051 C9.48686021,12.776051 9.23076923,13.0380724 9.23076923,13.360786 C9.23076923,13.683826 9.48686021,13.9455209 9.8029824,13.9455209 L14.9570521,13.9455209 C14.6830794,15.3267615 13.4958649,16.3197014 12.1167417,16.3216592 L9.8029824,16.3216592 C9.56860495,16.3216592 9.35817609,16.467843 9.2716416,16.6900553 C9.18478782,16.9125939 9.23971014,17.1664576 9.40990522,17.3312406 L15.1933455,22.915916 C15.3418271,23.060142 15.5544912,23.1123505 15.7508701,23.052637 C15.9472491,22.9929235 16.0973273,22.8304247 16.144586,22.6268116 C16.1918446,22.4231986 16.1286202,22.2091438 15.9794999,22.0658968 L11.2414983,17.4908028 L12.1167417,17.4908028 C14.1268321,17.4881924 15.8303797,15.9783885 16.1174442,13.9455209 L17.8893253,13.9455209 C18.2054475,13.9455209 18.4615385,13.6834997 18.4615385,13.360786 C18.4615385,13.0377461 18.2054475,12.776051 17.8893253,12.776051 L16.1174442,12.776051 C15.9903567,11.8715393 15.5730114,11.035551 14.9308682,10.3999128 L17.8893253,10.3999128 C18.2054475,10.3999128 18.4615385,10.1382179 18.4615385,9.81550416 L18.4615385,9.81550416 Z" id="Path"></path>
                    <path d="M30,4.52246672 C30,4.17957195 29.7219398,3.90116494 29.3786982,3.90116494 L26.0988351,3.90116494 L26.0988351,0.621301775 C26.0988351,0.278060237 25.8207747,0 25.4775333,0 C25.1342918,0 24.8562315,0.278060237 24.8562315,0.621301775 L24.8562315,3.90116494 L21.3905325,3.90116494 C21.047291,3.90116494 20.7692308,4.17957195 20.7692308,4.52246672 C20.7692308,4.86570817 21.047291,5.14376849 21.3905325,5.14376849 L24.8562315,5.14376849 L24.8562315,8.60946746 C24.8562315,8.95270899 25.1342918,9.23076923 25.4775333,9.23076923 C25.8207747,9.23076923 26.0988351,8.95270899 26.0988351,8.60946746 L26.0988351,5.14376849 L29.3786982,5.14376849 C29.7219398,5.14376849 30,4.86570817 30,4.52246672 Z" id="Path"></path>
                    <path d="M5.38644475,28.820877 C5.42516163,29.0508325 5.59293464,29.2346019 5.8129597,29.2882691 C6.03266994,29.3419362 6.26245293,29.2547677 6.39654548,29.0667701 L7.60526676,27.3715386 C9.98965829,29.0914895 12.829209,30.0093604 15.737065,30 C23.6019373,30 30,23.3887853 30,15.2619521 C30.0034386,13.3126961 29.6304347,11.3823049 28.902369,9.5839674 C28.7802378,9.29026169 28.4519315,9.1526786 28.1664341,9.27595045 C27.8809366,9.39954752 27.7449555,9.73748798 27.8614209,10.0337957 C28.5318834,11.6896713 28.8752988,13.4671924 28.8718363,15.2619521 C28.8718363,22.7457552 22.9796348,28.8342124 15.737065,28.8342124 C13.0703237,28.8429943 10.4652775,28.0044857 8.27478497,26.4328513 L10.0611114,23.9274083 C10.1952038,23.7394107 10.2077947,23.4870125 10.0932181,23.2856793 C9.97832652,23.0846715 9.75861629,22.9734341 9.53449922,23.0036828 L5.10724279,23.5975993 C4.95457871,23.6180905 4.81670898,23.7020063 4.7254253,23.8298318 C4.63414171,23.9579824 4.59731342,24.1186586 4.62375428,24.2754317 L5.38644475,28.820877 Z" id="Path"></path>
                </g>
            </g>
        </g>
    </g>
</svg>