<?xml version="1.0" encoding="UTF-8"?>
<svg width="32px" height="30px" viewBox="0 0 32 30" version="1.1" xmlns="http://www.w3.org/2000/svg" xmlns:xlink="http://www.w3.org/1999/xlink">
    <!-- Generator: Sketch 63.1 (92452) - https://sketch.com -->
    <title>star</title>
    <desc>Created with Sketch.</desc>
    <g id="Page-1" stroke="none" stroke-width="1" fill="none" fill-rule="evenodd">
        <g id="About-us" transform="translate(-99.000000, -2971.000000)" fill="#FFFFFF" fill-rule="nonzero">
            <g id="Group-17-Copy-6" transform="translate(70.000000, 2941.000000)">
                <g id="star" transform="translate(29.000000, 30.000000)">
                    <path d="M6.98815916,29.9507509 C6.6460881,29.9507509 6.30639912,29.8440323 6.0164963,29.6344066 C5.47647191,29.2430258 5.2242064,28.5703179 5.3711826,27.9211928 L7.37977812,19.07332 L0.567895127,13.0994635 C0.0671754837,12.6623462 -0.124107938,11.9701049 0.0814682072,11.3367018 C0.287044292,10.7044896 0.846363821,10.2568911 1.50859052,10.1956708 L10.5215435,9.37741595 L14.0849426,1.03836195 C14.3476894,0.425683149 14.9460755,0.0300146219 15.6109225,0.0300146219 C16.2757695,0.0300146219 16.8741556,0.425683149 17.1369024,1.03693266 L20.7003014,9.37741595 L29.7118252,10.1956708 C30.3754812,10.2554618 30.9348007,10.7044896 31.1403768,11.3367018 C31.3459529,11.9689138 31.1558606,12.6623462 30.6551409,13.0994635 L23.8432579,19.072129 L25.8518534,27.9197635 C25.9990679,28.5703179 25.7465642,29.2430258 25.2067779,29.6332156 C24.6681828,30.0234052 23.9499765,30.0534198 23.382796,29.7125398 L15.6109225,25.0681391 L7.83904901,29.7151602 C7.57630221,29.8711884 7.28354085,29.9507509 6.98815916,29.9507509 Z M15.6109225,23.0674046 C15.9063042,23.0674046 16.1988273,23.1467288 16.4618123,23.3027571 L23.7965686,27.6896516 L21.9008851,19.3386871 C21.7655812,18.7443506 21.9673459,18.1238108 22.4266168,17.7217106 L28.8585533,12.0808731 L20.3489401,11.3081164 C19.7362613,11.2521368 19.2093385,10.8669496 18.9699364,10.3023894 L15.6109225,2.43284937 L12.247859,10.3035805 C12.0110772,10.8643293 11.4841544,11.2495165 10.8729049,11.3054961 L2.3621007,12.0782527 L8.79379887,17.7190902 C9.25449899,18.1223815 9.45602557,18.7417302 9.31953065,19.337496 L7.42527644,27.6882224 L14.7600326,23.3027571 C15.0227794,23.1467288 15.3155408,23.0674046 15.6109225,23.0674046 Z" id="Shape"></path>
                </g>
            </g>
        </g>
    </g>
</svg>