<?xml version="1.0" encoding="UTF-8"?>
<svg width="30px" height="30px" viewBox="0 0 30 30" version="1.1" xmlns="http://www.w3.org/2000/svg" xmlns:xlink="http://www.w3.org/1999/xlink">
    <!-- Generator: Sketch 63.1 (92452) - https://sketch.com -->
    <title>technical-support</title>
    <desc>Created with Sketch.</desc>
    <g id="Page-1" stroke="none" stroke-width="1" fill="none" fill-rule="evenodd">
        <g id="About-us" transform="translate(-880.000000, -2758.000000)" fill="#FFFFFF" fill-rule="nonzero">
            <g id="Group-17-Copy-5" transform="translate(850.000000, 2728.000000)">
                <g id="technical-support" transform="translate(30.000000, 30.000000)">
                    <path d="M5.27641295,23.2001496 C4.85641477,23.2001496 4.45266727,23.3049774 4.09446715,23.5018158 C2.20756529,21.0829925 1.171875,18.0782318 1.171875,15 C1.171875,7.37503055 7.37503055,1.171875 15,1.171875 C15.9269714,1.171875 16.8534851,1.26411439 17.7539062,1.44607547 C18.0706787,1.51016238 18.380127,1.30508426 18.4442139,0.987854004 C18.5083008,0.67062375 18.3032227,0.361633301 17.9859925,0.29731752 C17.0093537,0.100021348 16.0047913,0 15,0 C10.9934235,0 7.22648619,1.56028746 4.39338686,4.39338686 C1.56028746,7.22648619 0,10.9934235 0,15 C0,18.370285 1.14440918,21.659317 3.22792055,24.2960358 C2.95967104,24.6968079 2.81547545,25.1678467 2.81547545,25.6610871 C2.81547545,26.3184357 3.07159424,26.9364166 3.53645326,27.4010467 C4.00108336,27.8659058 4.61906432,28.1220246 5.27641295,28.1220246 C5.93376158,28.1220246 6.55174254,27.8659058 7.01660156,27.4010467 C7.48146059,26.9364166 7.73735045,26.3182068 7.73735045,25.6608581 C7.73735045,25.0037384 7.48146059,24.3855286 7.01660156,23.9208984 C6.55174254,23.4560394 5.93376158,23.2001496 5.27641295,23.2001496 Z M6.18782045,26.5724945 C5.94451904,26.8160248 5.62065123,26.9501496 5.27641295,26.9501496 C4.93217467,26.9501496 4.60853578,26.8160248 4.36500551,26.5724945 C4.12147523,26.3289642 3.98735045,26.0053253 3.98735045,25.6610871 C3.98735045,25.3166198 4.12147523,24.992981 4.36500551,24.7494507 C4.60830691,24.5059204 4.93217467,24.3720246 5.27641295,24.3720246 C5.62065123,24.3720246 5.94429018,24.5061493 6.18782045,24.7494507 C6.43135072,24.992981 6.56547545,25.3166198 6.56547545,25.6610871 C6.56547545,26.0053253 6.43135072,26.3289642 6.18782045,26.5724945 L6.18782045,26.5724945 Z" id="Shape"></path>
                    <path d="M26.7716217,5.70327762 C27.4085999,4.74769594 27.3062897,3.44123842 26.4637757,2.59872434 C25.9989166,2.13409424 25.3809357,1.87797545 24.7235871,1.87797545 C24.0662384,1.87797545 23.4482575,2.13409424 22.9833984,2.59872434 C22.5185394,3.06358336 22.2626496,3.68156432 22.2626496,4.33891295 C22.2626496,4.99626158 22.5185394,5.61424254 22.9833984,6.07910156 C23.4482575,6.54396059 24.0662384,6.79985045 24.7235871,6.79985045 C25.1435852,6.79985045 25.5473327,6.6950226 25.9055329,6.49818422 C27.7924347,8.91723633 28.828125,11.9217682 28.828125,15 C28.828125,22.6249695 22.6249695,28.828125 15,28.828125 C14.0821839,28.828125 13.1643677,28.7377167 12.2724152,28.5591888 C11.9551849,28.4957886 11.6464233,28.7015534 11.5827942,29.0187836 C11.5193939,29.3362427 11.7251587,29.6447754 12.0423889,29.7084046 C13.0098724,29.9018097 14.0050506,30 15,30 C19.0065765,30 22.7735138,28.4397125 25.6066131,25.6066131 C28.4397125,22.7735138 30,19.0065765 30,15 C30,11.6294861 28.855362,8.34022523 26.7716217,5.70327762 Z M23.8121796,5.25054932 C23.5686493,5.00701904 23.4345246,4.68338016 23.4345246,4.33891295 C23.4345246,3.99467467 23.5686493,3.67103578 23.8121796,3.42750551 C24.055481,3.18397523 24.3793488,3.04985045 24.7235871,3.04985045 C25.0678253,3.04985045 25.3916931,3.18397523 25.6352234,3.42750551 C26.137619,3.93013002 26.137619,4.7479248 25.6352234,5.25054932 C25.3916931,5.49385072 25.0678253,5.62797545 24.7235871,5.62797545 C24.3791198,5.62797545 24.055481,5.49385072 23.8121796,5.25054932 Z" id="Shape"></path>
                    <path d="M12.5820923,25.078125 C12.5820923,25.4017639 12.8446198,25.6640625 13.1680298,25.6640625 L16.8317413,25.6640625 C17.1553802,25.6640625 17.4176788,25.4017639 17.4176788,25.078125 L17.4176788,23.9421844 C18.1880951,23.7348175 18.9246369,23.4294891 19.6167755,23.030777 L20.4187775,23.8327789 C20.5286408,23.9426422 20.6776429,24.0044403 20.8332825,24.0044403 C20.9884644,24.0044403 21.1376953,23.9426422 21.2475586,23.8325501 L23.8371277,21.2411499 C24.0657806,21.0122681 24.0657806,20.6412506 23.8371277,20.4125977 L23.0360413,19.6115112 C23.4347534,18.9193726 23.7400818,18.1828308 23.9474487,17.4124146 L25.0790405,17.4124146 C25.4026794,17.4124146 25.664978,17.1501159 25.664978,16.8264771 L25.664978,13.1627655 C25.664978,12.8391266 25.4026794,12.576828 25.0790405,12.576828 L23.9472199,12.576828 C23.7398529,11.8066406 23.4347534,11.0700989 23.0360413,10.3779602 L23.8327789,9.58122252 C23.9426422,9.47135924 24.0044403,9.32212828 24.0044403,9.1667175 C24.0042114,9.01130678 23.9424134,8.86207582 23.8325501,8.75221254 L21.240921,6.16264342 C21.0122681,5.93399051 20.6412506,5.93399051 20.4123688,6.16287234 L19.6167755,6.95869447 C18.9246369,6.55998229 18.1880951,6.25465395 17.4176788,6.04728697 L17.4176788,4.921875 C17.4176788,4.59823605 17.1553802,4.3359375 16.8317413,4.3359375 L13.1680298,4.3359375 C12.8446198,4.3359375 12.5820923,4.59823605 12.5820923,4.921875 L12.5820923,6.0475159 C11.8119049,6.25465395 11.0753631,6.55998229 10.3832245,6.95869447 L9.58740234,6.16287234 C9.35874937,5.93421938 8.98773193,5.93399051 8.7588501,6.16264342 L6.16744992,8.75244141 C6.05735777,8.86230469 5.99555971,9.01130678 5.99555971,9.1667175 C5.99555971,9.32212828 6.05735777,9.47135924 6.16722105,9.58122252 L6.96395871,10.3779602 C6.56524658,11.0700989 6.25991824,11.8064118 6.05255127,12.576828 L4.92301939,12.576828 C4.59938051,12.576828 4.33708189,12.8391266 4.33708189,13.1625366 L4.33502134,16.8262482 C4.33479311,16.9816589 4.39659117,17.1308899 4.50645445,17.2407532 C4.61631773,17.3506165 4.76531982,17.4124146 4.92095947,17.4124146 L6.05255127,17.4124146 C6.25991824,18.1828308 6.56524658,18.9193726 6.96395871,19.6115112 L6.16287234,20.4125977 C5.93421937,20.6412506 5.93399051,21.0122681 6.16287234,21.2411499 L8.75244141,23.8325501 C8.86230469,23.9424134 9.01130678,24.0044403 9.1667175,24.0044403 L9.16694643,24.0044403 C9.32235715,24.0044403 9.47135924,23.9426422 9.58122252,23.8327789 L10.3829956,23.030777 C11.0753631,23.4294891 11.8119049,23.7348175 12.5820923,23.9421844 L12.5820923,25.078125 Z M10.612793,21.7984772 C10.3809357,21.6485596 10.0758362,21.6810608 9.88037109,21.876297 L9.16694643,22.5897217 L7.40570068,20.8271027 L8.11843875,20.1141357 C8.31367494,19.9188996 8.34617613,19.6138001 8.19625852,19.3819427 C7.66502379,18.5597992 7.29148863,17.6586914 7.08641051,16.7033386 C7.02827455,16.433487 6.78977965,16.2405396 6.51351926,16.2405396 L5.50712584,16.2405396 L5.50849916,13.748703 L6.51351926,13.748703 C6.78977965,13.748703 7.02827455,13.5559845 7.08641051,13.2859039 C7.29148863,12.33078 7.66502379,11.4296722 8.19625852,10.6075287 C8.34617613,10.3756714 8.31367494,10.0705719 8.11843875,9.87533566 L7.41027832,9.16694643 L9.17289732,7.40570068 L9.88037109,8.11340332 C10.0758362,8.30863951 10.3807068,8.34091184 10.612793,8.19122314 C11.4347077,7.65998842 12.3358154,7.28645326 13.2911682,7.08137514 C13.5610199,7.02323912 13.7539673,6.78451535 13.7539673,6.50848389 L13.7539673,5.5078125 L16.2458038,5.5078125 L16.2458038,6.50825502 C16.2458038,6.78451535 16.4385223,7.02323912 16.7086029,7.08114621 C17.6637268,7.28645326 18.5650635,7.65975949 19.3869782,8.19099428 C19.6188354,8.34091184 19.9239349,8.30863951 20.1191712,8.11317445 L20.8268737,7.40570068 L22.5894928,9.16694643 L21.8813324,9.8751068 C21.6858673,10.0705719 21.653595,10.3756714 21.8035126,10.6075287 C22.3347473,11.4296722 22.7080536,12.33078 22.9133606,13.2859039 C22.9712677,13.5559845 23.2099915,13.748703 23.4862518,13.748703 L24.493103,13.748703 L24.493103,16.2405396 L23.4862518,16.2405396 C23.2099915,16.2405396 22.9714966,16.433487 22.9133606,16.7033386 C22.7082825,17.6584625 22.3347473,18.5597992 21.8035126,19.3817139 C21.653595,19.6138001 21.6860962,19.9188996 21.8813324,20.1141357 L22.5940704,20.8268738 L20.8328247,22.5894928 L20.1194,21.876297 C19.9239349,21.6808319 19.6188354,21.6485596 19.3869782,21.7984772 C18.5648346,22.3297119 17.6637268,22.7030182 16.7086029,22.9083252 C16.4385223,22.9664612 16.2458038,23.2049561 16.2458038,23.4812164 L16.2458038,24.4921875 L13.7539673,24.4921875 L13.7539673,23.4812164 C13.7539673,23.2051849 13.5610199,22.9664612 13.2911682,22.9083252 C12.3360443,22.7032471 11.4349365,22.3297119 10.612793,21.7984772 L10.612793,21.7984772 Z" id="Shape"></path>
                    <path d="M19.8415375,15 C19.8415375,12.3303223 17.6696777,10.1584625 15,10.1584625 C12.3303223,10.1584625 10.1584625,12.3303223 10.1584625,15 C10.1584625,17.6696777 12.3303223,19.8415375 15,19.8415375 C17.6696777,19.8415375 19.8415375,17.6696777 19.8415375,15 Z M11.3303375,15 C11.3303375,12.9764557 12.9764557,11.3303375 15,11.3303375 C17.0235443,11.3303375 18.6696625,12.9766846 18.6696625,15 C18.6696625,17.0233154 17.0235443,18.6696625 15,18.6696625 C12.9764557,18.6696625 11.3303375,17.0235443 11.3303375,15 Z" id="Shape"></path>
                    <path d="M20.3952026,2.21603391 C20.549469,2.21603391 20.700531,2.15332031 20.8094788,2.04437256 C20.9184265,1.93473814 20.9811401,1.78367613 20.9811401,1.6294098 C20.9811401,1.47605895 20.9186554,1.32476807 20.8094788,1.21513365 C20.700531,1.1061859 20.549469,1.0434723 20.3952026,1.0434723 C20.2404785,1.0434723 20.0901032,1.1061859 19.9811554,1.21513365 C19.8719788,1.32476807 19.8092651,1.47537234 19.8092651,1.6294098 C19.8092651,1.78413393 19.8719788,1.93473814 19.9811554,2.04437256 C20.0901032,2.15332031 20.2404785,2.21603391 20.3952026,2.21603391 Z" id="Path"></path>
                    <path d="M9.63043213,27.7944946 C9.47639467,27.7944946 9.32510379,27.8572083 9.21615598,27.966156 C9.10720828,28.0751038 9.04449463,28.2263947 9.04449463,28.3804321 C9.04449463,28.5351562 9.10720828,28.6857605 9.21615598,28.7947083 C9.32510379,28.903656 9.47639467,28.9663696 9.63043213,28.9663696 C9.78446959,28.9663696 9.93576047,28.903656 10.0447083,28.7947083 C10.153656,28.6857605 10.2163696,28.5344696 10.2163696,28.3804321 C10.2163696,28.2263947 10.153656,28.0751038 10.0447083,27.966156 C9.93576047,27.8572083 9.78446959,27.7944946 9.63043213,27.7944946 Z" id="Path"></path>
                </g>
            </g>
        </g>
    </g>
</svg>