<?xml version="1.0" encoding="UTF-8"?>
<svg width="68px" height="68px" viewBox="0 0 68 68" version="1.1" xmlns="http://www.w3.org/2000/svg" xmlns:xlink="http://www.w3.org/1999/xlink">
    <title>1D4FCB79-354C-4FDF-8B27-61C01695589F</title>
    <g id="Page-2-🥲" stroke="none" stroke-width="1" fill="none" fill-rule="evenodd">
        <g id="K-Startup/Startup-Guide-1" transform="translate(-922.000000, -3254.000000)" fill="#1F3C88" fill-rule="nonzero">
            <g id="Group-10-Copy" transform="translate(900.000000, 3232.000000)">
                <g id="city" transform="translate(22.000000, 22.000000)">
                    <path d="M63.75,68 L4.25,68 C1.90683333,68 0,66.1156 0,63.8 L0,61 C0,57.1416 3.17616667,54 7.08333333,54 L60.9166667,54 C64.8238333,54 68,57.1416 68,61 L68,63.8 C68,66.1156 66.0931667,68 63.75,68 Z M7.08333333,56.8 C4.74016667,56.8 2.83333333,58.6844 2.83333333,61 L2.83333333,63.8 C2.83333333,64.5728 3.47083333,65.2 4.25,65.2 L63.75,65.2 C64.5291667,65.2 65.1666667,64.5728 65.1666667,63.8 L65.1666667,61 C65.1666667,58.6844 63.2598333,56.8 60.9166667,56.8 L7.08333333,56.8 Z" id="Shape"></path>
                    <path d="M46.6,57 C45.8272,57 45.2,56.3624615 45.2,55.5769231 L45.2,24.2692308 C45.2,23.4836923 44.57,22.8461538 43.8,22.8461538 L24.2,22.8461538 C23.43,22.8461538 22.8,23.4836923 22.8,24.2692308 L22.8,55.5769231 C22.8,56.3624615 22.1728,57 21.4,57 C20.6272,57 20,56.3624615 20,55.5769231 L20,24.2692308 C20,21.9154615 21.8844,20 24.2,20 L43.8,20 C46.1156,20 48,21.9154615 48,24.2692308 L48,55.5769231 C48,56.3624615 47.3728,57 46.6,57 Z" id="Path"></path>
                    <path d="M38.625,57 C37.866,57 37.25,56.384 37.25,55.625 L37.25,48.75 L31.75,48.75 L31.75,55.625 C31.75,56.384 31.134,57 30.375,57 C29.616,57 29,56.384 29,55.625 L29,47.375 C29,46.616 29.616,46 30.375,46 L38.625,46 C39.384,46 40,46.616 40,47.375 L40,55.625 C40,56.384 39.384,57 38.625,57 Z" id="Path"></path>
                    <path d="M38.625,32 L30.375,32 C29.616,32 29,31.328 29,30.5 C29,29.672 29.616,29 30.375,29 L38.625,29 C39.384,29 40,29.672 40,30.5 C40,31.328 39.384,32 38.625,32 Z" id="Path"></path>
                    <path d="M38.625,39 L30.375,39 C29.616,39 29,38.328 29,37.5 C29,36.672 29.616,36 30.375,36 L38.625,36 C39.384,36 40,36.672 40,37.5 C40,38.328 39.384,39 38.625,39 Z" id="Path"></path>
                    <path d="M41.5833333,23 C40.8013333,23 40.1666667,22.36 40.1666667,21.5714286 L40.1666667,15.8571429 L28.8333333,15.8571429 L28.8333333,21.5714286 C28.8333333,22.36 28.1986667,23 27.4166667,23 C26.6346667,23 26,22.36 26,21.5714286 L26,14.4285714 C26,13.64 26.6346667,13 27.4166667,13 L41.5833333,13 C42.3653333,13 43,13.64 43,14.4285714 L43,21.5714286 C43,22.36 42.3653333,23 41.5833333,23 Z" id="Path"></path>
                    <path d="M34.5,16 C33.672,16 33,15.3728 33,14.6 L33,10.4 C33,9.6272 33.672,9 34.5,9 C35.328,9 36,9.6272 36,10.4 L36,14.6 C36,15.3728 35.328,16 34.5,16 Z" id="Path"></path>
                    <path d="M58.5833333,57 C57.8013333,57 57.1666667,56.3616 57.1666667,55.575 L57.1666667,25.65 C57.1666667,13.07865 46.9978333,2.85 34.5,2.85 C22.0021667,2.85 11.8333333,13.07865 11.8333333,25.65 L11.8333333,55.575 C11.8333333,56.3616 11.1986667,57 10.4166667,57 C9.63466667,57 9,56.3616 9,55.575 L9,25.65 C9,11.5083 20.4381667,0 34.5,0 C48.5618333,0 60,11.5083 60,25.65 L60,55.575 C60,56.3616 59.3653333,57 58.5833333,57 Z" id="Path"></path>
                </g>
            </g>
        </g>
    </g>
</svg>