<?xml version="1.0" encoding="UTF-8"?>
<svg width="60px" height="60px" viewBox="0 0 60 60" version="1.1" xmlns="http://www.w3.org/2000/svg" xmlns:xlink="http://www.w3.org/1999/xlink">
    <title>E50DB214-9D98-41D4-A164-8D68C10C368B</title>
    <g id="Page-2-🥲" stroke="none" stroke-width="1" fill="none" fill-rule="evenodd">
        <g id="K-Startup/Startup-Guide-1" transform="translate(-610.000000, -1412.000000)" fill="#1F3C88" fill-rule="nonzero">
            <g id="clipboard-(1)" transform="translate(610.000000, 1412.000000)">
                <path d="M38.75,60 L6.25,60 C2.8025,60 0,57.1682857 0,53.6904762 L0,13.3095238 C0,9.83171429 2.8025,7 6.25,7 L11.25,7 C11.94,7 12.5,7.56533333 12.5,8.26190476 C12.5,8.95847619 11.94,9.52380952 11.25,9.52380952 L6.25,9.52380952 C4.1825,9.52380952 2.5,11.2223333 2.5,13.3095238 L2.5,53.6904762 C2.5,55.7776667 4.1825,57.4761905 6.25,57.4761905 L38.75,57.4761905 C40.8175,57.4761905 42.5,55.7776667 42.5,53.6904762 L42.5,13.3095238 C42.5,11.2223333 40.8175,9.52380952 38.75,9.52380952 L33.75,9.52380952 C33.06,9.52380952 32.5,8.95847619 32.5,8.26190476 C32.5,7.56533333 33.06,7 33.75,7 L38.75,7 C42.1975,7 45,9.83171429 45,13.3095238 L45,53.6904762 C45,57.1682857 42.1975,60 38.75,60 Z" id="Path"></path>
                <path d="M31.25,15 L13.75,15 C11.6825,15 10,13.3175 10,11.25 L10,6.25 C10,5.56 10.56,5 11.25,5 L16.375,5 C16.955,2.15 19.4825,0 22.5,0 C25.5175,0 28.045,2.15 28.625,5 L33.75,5 C34.44,5 35,5.56 35,6.25 L35,11.25 C35,13.3175 33.3175,15 31.25,15 Z M12.5,7.5 L12.5,11.25 C12.5,11.94 13.0625,12.5 13.75,12.5 L31.25,12.5 C31.9375,12.5 32.5,11.94 32.5,11.25 L32.5,7.5 L27.5,7.5 C26.81,7.5 26.25,6.94 26.25,6.25 C26.25,4.1825 24.5675,2.5 22.5,2.5 C20.4325,2.5 18.75,4.1825 18.75,6.25 C18.75,6.94 18.19,7.5 17.5,7.5 L12.5,7.5 Z" id="Shape"></path>
                <path d="M55,53 C54.5275,53 54.095,52.7289333 53.8825,52.3008 L50.66,45.7698667 C50.2275,44.8933333 50,43.9154667 50,42.9376 L50,20.0666667 C50,17.2724 52.2425,15 55,15 C57.7575,15 60,17.2724 60,20.0666667 L60,42.9376 C60,43.9154667 59.7725,44.8933333 59.34,45.7698667 L56.1175,52.3008 C55.905,52.7289333 55.4725,53 55,53 Z M55,17.5333333 C53.62,17.5333333 52.5,18.6708 52.5,20.0666667 L52.5,42.9376 C52.5,43.5228 52.6375,44.1130667 52.895,44.6374667 L55,48.9010667 L57.105,44.6374667 C57.3625,44.1130667 57.5,43.5228 57.5,42.9376 L57.5,20.0666667 C57.5,18.6708 56.38,17.5333333 55,17.5333333 Z" id="Shape"></path>
                <path d="M35.75,25 L8.25,25 C7.56,25 7,24.552 7,24 C7,23.448 7.56,23 8.25,23 L35.75,23 C36.44,23 37,23.448 37,24 C37,24.552 36.44,25 35.75,25 Z" id="Path"></path>
                <path d="M35.75,33 L8.25,33 C7.56,33 7,32.552 7,32 C7,31.448 7.56,31 8.25,31 L35.75,31 C36.44,31 37,31.448 37,32 C37,32.552 36.44,33 35.75,33 Z" id="Path"></path>
                <path d="M35.75,40 L8.25,40 C7.56,40 7,39.552 7,39 C7,38.448 7.56,38 8.25,38 L35.75,38 C36.44,38 37,38.448 37,39 C37,39.552 36.44,40 35.75,40 Z" id="Path"></path>
                <path d="M35.75,47 L8.25,47 C7.56,47 7,46.552 7,46 C7,45.448 7.56,45 8.25,45 L35.75,45 C36.44,45 37,45.448 37,46 C37,46.552 36.44,47 35.75,47 Z" id="Path"></path>
            </g>
        </g>
    </g>
</svg>