<?xml version="1.0" encoding="UTF-8"?>
<svg width="68px" height="68px" viewBox="0 0 68 68" version="1.1" xmlns="http://www.w3.org/2000/svg" xmlns:xlink="http://www.w3.org/1999/xlink">
    <title>36B7AC93-B96B-449E-A134-9519E1C3E3AF</title>
    <g id="Page-2-🥲" stroke="none" stroke-width="1" fill="none" fill-rule="evenodd">
        <g id="K-Startup/Startup-Guide-1" transform="translate(-525.000000, -3250.000000)" fill="#1F3C88" fill-rule="nonzero">
            <g id="Group-10" transform="translate(500.000000, 3232.000000)">
                <g id="Group" transform="translate(59.000000, 52.000000) scale(-1, 1) rotate(-180.000000) translate(-59.000000, -52.000000) translate(25.000000, 18.000000)">
                    <path d="M18.9125,67.5446429 C14.1160714,66.2392857 10.6553571,63.4160714 8.46964286,59.0446429 C7.16428571,56.3732143 6.70892857,53.975 6.67857143,49.4821429 C6.67857143,43.2285714 7.55892857,40.0714286 9.71428571,38.6142857 C10.625,38.0071429 10.8375,37.6428571 11.1410714,36.0946429 C11.8392857,32.6642857 14.7839286,28.475 17.3946429,27.1089286 C18.0928571,26.775 18.2446429,26.5017857 18.1535714,25.7428571 C18.0928571,25.0142857 17.85,24.7714286 16.9696429,24.4678571 C16.3625,24.2553571 15.4821429,23.8 14.9964286,23.4660714 C14.4803571,23.1017857 13.175,22.7071429 11.9,22.525 C8.83392857,22.0696429 6.10178571,20.7339286 3.97678571,18.6089286 C0.819642857,15.4214286 0,12.8410714 0,6.04107143 C0,1.4875 0.0303571429,1.30535714 0.698214286,0.667857143 L1.39642857,0 L24.8321429,0 C44.6857143,0 48.3892857,0.0607142857 48.9660714,0.425 C49.5428571,0.819642857 49.8464286,0.819642857 51.3035714,0.425 C54.8857143,-0.576785714 59.4089286,0.394642857 62.6875,2.82321429 C65.6928571,5.03928571 68,9.50178571 68,13.0839286 C68,17.9410714 65.6017857,23.9821429 62.1410714,27.7767857 C60.7142857,29.3857143 60.7142857,29.3857143 61.4732143,29.5678571 C62.0196429,29.7196429 62.2321429,29.9625 62.2321429,30.5089286 C62.2321429,31.3589286 61.4428571,31.875 60.1375,31.875 C59.6214286,31.875 59.1964286,31.9357143 59.1964286,32.0267857 C59.1964286,32.1178571 59.6821429,33.3321429 60.2589286,34.7589286 C61.2303571,37.0964286 61.2910714,37.4607143 60.9571429,38.1892857 C60.35,39.4035714 59.3482143,39.7678571 56.3732143,39.7678571 C53.8535714,39.7678571 53.7017857,39.7982143 53.4285714,40.4964286 C53.0339286,41.5589286 52.2142857,41.8928571 49.9375,41.8928571 C48.2071429,41.8928571 47.8428571,41.8017857 47.2053571,41.1339286 C46.7803571,40.7392857 46.4464286,40.1321429 46.4464286,39.8285714 C46.4464286,39.525 47.175,37.6125 48.0857143,35.6089286 L49.6946429,31.9357143 L48.3285714,31.7839286 C46.4464286,31.5714286 45.7785714,30.2660714 47.2357143,29.6285714 C47.8428571,29.3553571 47.8125,29.2339286 46.2642857,27.3821429 C45.3839286,26.3196429 44.1696429,24.4982143 43.5625,23.3446429 C42.9553571,22.1910714 42.4392857,21.25 42.4089286,21.25 C42.3785714,21.25 41.6803571,21.4928571 40.8303571,21.8267857 C40.0107143,22.1303571 38.4928571,22.4946429 37.5214286,22.6160714 C36.3375,22.7375 35.3660714,23.0714286 34.7589286,23.5571429 C34.2125,23.9517857 33.3625,24.3767857 32.8464286,24.4678571 C31.9964286,24.65 31.875,24.7714286 31.875,25.6517857 C31.875,26.5017857 32.1178571,26.8357143 33.3321429,27.7160714 C36.2767857,29.9017857 37.9767857,32.7857143 39.0089286,37.3392857 C39.1,37.7642857 39.6160714,38.3714286 40.1321429,38.7053571 C42.5303571,40.1928571 43.1071429,42.2875 43.1071429,49.4517857 C43.1071429,55.7660714 42.8339286,56.7982143 40.4053571,59.2267857 C39.2821429,60.3196429 38.1892857,61.1089286 37.1875,61.4732143 C36.3678571,61.7767857 35.5482143,62.1410714 35.3964286,62.2625 C35.275,62.3839286 35.5178571,62.9910714 35.9428571,63.6285714 C36.975,65.1464286 36.9446429,66.0267857 35.8517857,67.1196429 L34.9714286,68 L27.7160714,67.9696429 C22.525,67.9696429 20.0357143,67.8482143 18.9125,67.5446429 Z M34.1517857,65.5107143 C34.2732143,65.4196429 33.8482143,64.6303571 33.2410714,63.7803571 C32.2392857,62.3839286 31.9964286,62.2321429 30.9642857,62.2321429 C30.0535714,62.2321429 29.75,62.0803571 29.5982143,61.625 C29.2642857,60.5321429 29.9017857,60.1982143 32.6339286,60.0464286 C36.0035714,59.8642857 38.25,58.8017857 39.7071429,56.6464286 C40.5571429,55.3410714 40.6785714,54.9464286 40.6785714,53.125 L40.6785714,51.0910714 L39.2517857,50.9089286 C38.1589286,50.7875 37.6428571,50.8785714 37.1267857,51.3035714 C36.7321429,51.6071429 35.6089286,51.9410714 34.5160714,52.0625 C31.8446429,52.3660714 29.1428571,53.2767857 27.6553571,54.3696429 C25.6214286,55.8267857 24.5892857,55.8571429 22.6767857,54.5517857 C20.6732143,53.1553571 19.1553571,52.6392857 16.0285714,52.2142857 C14.5107143,52.0017857 13.2053571,51.6678571 12.7196429,51.3339286 C12.1428571,50.8785714 11.5964286,50.7875 10.5339286,50.9089286 L9.10714286,51.0910714 L9.10714286,52.4875 C9.10714286,55.8875 10.9589286,59.925 13.5696429,62.2321429 C15.4517857,63.8714286 18.3964286,65.2375 20.7339286,65.5410714 C22.8589286,65.8446429 33.8785714,65.8142857 34.1517857,65.5107143 Z M26.5017857,52.3964286 C27.8375,51.3642857 30.2357143,50.4839286 32.6946429,50.0589286 C36.4285714,49.4517857 36.125,49.6339286 36.125,47.9946429 C36.125,46.0821429 36.9142857,44.9892857 37.8857143,45.5053571 C38.3410714,45.7482143 38.5535714,46.1732143 38.6142857,47.1446429 C38.7053571,48.3285714 38.7660714,48.4196429 39.6160714,48.4196429 L40.5267857,48.4196429 L40.6178571,45.9910714 C40.7392857,42.7732143 40.1625,41.1946429 38.5232143,40.375 C37.1571429,39.6767857 36.8839286,39.2214286 36.6107143,37.2482143 C36.1553571,33.6357143 33.3321429,29.9321429 29.8107143,28.2928571 C28.2928571,27.5642857 27.7160714,27.4732143 24.8928571,27.4732143 C22.0696429,27.4732143 21.5232143,27.5642857 19.9446429,28.2928571 C17.85,29.2642857 15.2696429,31.7839286 14.3285714,33.7571429 C13.9339286,34.5160714 13.4482143,36.0946429 13.2660714,37.2178571 C12.9017857,39.1607143 12.7803571,39.3428571 11.5357143,40.2232143 C9.65357143,41.5285714 9.28928571,42.4392857 9.25892857,45.6875 L9.25892857,48.4196429 L10.1696429,48.4196429 C11.0196429,48.4196429 11.0803571,48.3285714 11.2625,47.1142857 C11.6571429,44.2 13.6607143,44.8071429 13.6607143,47.8125 C13.6607143,49.6339286 13.6303571,49.6339286 16.3928571,49.9375 C18.7910714,50.2107143 21.8267857,51.2125 23.2232143,52.2142857 C24.7410714,53.2767857 25.2875,53.3071429 26.5017857,52.3964286 Z M51.8803571,37.8857143 C52.7303571,35.3964286 52.9125,35.1535714 53.7625,35.275 C54.3392857,35.3357143 54.5214286,35.5785714 54.5821429,36.3678571 L54.6732143,37.3392857 L56.7678571,37.3392857 C59.1964286,37.3392857 59.1357143,37.6732143 57.4053571,33.9089286 L56.4946429,31.8446429 L54.3089286,31.9357143 L52.1232143,32.0267857 L50.5142857,35.6696429 C49.6339286,37.6732143 48.9053571,39.4035714 48.9053571,39.5553571 C48.875,39.6767857 49.4214286,39.7678571 50.0589286,39.7678571 C51.2428571,39.7678571 51.2428571,39.7678571 51.8803571,37.8857143 Z M58.3464286,28.3839286 C62.3232143,25.5607143 65.6321429,18.7607143 65.6019929,13.3571429 C65.6019929,7.225 60.775,2.39821429 54.6125,2.39821429 C50.9696429,2.36785714 48.4803571,3.43035714 46.1732143,5.91964286 C45.4446429,6.70892857 44.5035714,8.10535714 44.0785714,9.04642857 C43.3803571,10.5339286 43.2589286,11.1714286 43.2589286,13.6607143 C43.2892857,16.9089286 43.7142857,18.4875 45.5660714,22.2214286 C46.8410714,24.7714286 49.5732143,27.9285714 51.2732143,28.8696429 C52.1232143,29.325 52.8517857,29.4464286 54.7035714,29.3857143 C56.7375,29.2946429 57.1928571,29.1732143 58.3464286,28.3839286 Z M24.8928571,25.0446429 C25.9857143,25.0446429 27.4428571,25.1660714 28.1714286,25.2875 C29.4464286,25.5607143 29.4464286,25.5607143 29.4464286,24.6803571 C29.4464286,23.5267857 28.475,22.6160714 26.4410714,21.8571429 C24.8928571,21.25 24.8928571,21.25 23.3446429,21.8571429 C21.3107143,22.6160714 20.3392857,23.5267857 20.3392857,24.6803571 C20.3392857,25.5607143 20.3392857,25.5607143 21.6446429,25.2875 C22.3428571,25.1660714 23.8,25.0446429 24.8928571,25.0446429 Z M19.0339286,22.0089286 C19.1857143,21.7660714 19.7017857,21.25 20.2482143,20.8857143 L21.1589286,20.1875 L20.0053571,18.8214286 L18.8517857,17.4857143 L17.6982143,18.3964286 C17.0910714,18.9125 16.3928571,19.7625 16.1803571,20.2785714 C15.7857143,21.2196429 15.8160714,21.2803571 16.7571429,21.8571429 C17.9410714,22.5857143 18.7,22.6160714 19.0339286,22.0089286 Z M33.4839286,21.6142857 C33.9089286,21.1892857 33.9696429,20.8857143 33.7267857,20.3089286 C33.4535714,19.5803571 31.4803571,17.6071429 31.025,17.6071429 C30.9035714,17.6071429 30.3571429,18.1535714 29.8107143,18.8214286 L28.8089286,20.0357143 L29.9625,21.2196429 C30.9035714,22.1910714 31.2982143,22.3732143 32.0267857,22.2821429 C32.5125,22.1910714 33.1803571,21.8875 33.4839286,21.6142857 Z M13.7517857,16.3321429 C13.9946429,11.7482143 14.7535714,7.68035714 15.9071429,4.82678571 C16.3625,3.76428571 16.7571429,2.7625 16.7875,2.58035714 C16.8482143,2.24642857 2.91428571,2.15535714 2.55,2.48928571 C2.15535714,2.91428571 2.03392857,7.4375 2.39821429,10.0482143 C2.82321429,13.2053571 3.79464286,15.2696429 5.7375,17.0910714 C7.89285714,19.125 10.2910714,20.2178571 12.6285714,20.3089286 L13.5696429,20.3392857 L13.7517857,16.3321429 Z M40.4660714,19.5803571 C41.5285714,19.1553571 41.6196429,19.0035714 41.4375,18.275 C40.9821429,16.4839286 40.8,13.2053571 41.0428571,11.4446429 C41.4071429,8.77321429 42.7732143,6.07142857 44.7464286,4.09821429 C45.6571429,3.1875 46.2946429,2.36785714 46.1732143,2.30714286 C45.8089286,2.06428571 33.0589286,2.21607143 32.9375,2.42857143 C32.8464286,2.55 33.1803571,3.52142857 33.6660714,4.58392857 C35.0928571,7.80178571 36.0946429,12.9928571 36.125,17.2125 C36.125,20.2785714 36.2160714,20.4607143 37.9160714,20.2482143 C38.675,20.1571429 39.8285714,19.8535714 40.4660714,19.5803571 Z M27.1089286,18.3053571 C28.0803571,17.8196429 28.1107143,17.7892857 27.2910714,16.6660714 C26.7446429,15.8767857 26.5017857,15.7857143 24.9232143,15.7857143 C23.3446429,15.7857143 23.1321429,15.8767857 22.525,16.6660714 C21.9178571,17.5160714 21.9178571,17.5464286 22.4339286,18.0321429 C23.6178571,19.125 25.3178571,19.2160714 27.1089286,18.3053571 Z M17.9714286,15.6035714 C18.9428571,15.1178571 19.7625,14.9053571 20.2178571,14.9964286 C20.6732143,15.1178571 21.0071429,15.0267857 21.1589286,14.7232143 C21.4625,14.2071429 19.7625,3.33928571 19.3678571,3.33928571 C19.0642857,3.33928571 18.0928571,5.28214286 17.5160714,7.13392857 C16.575,9.9875 15.725,16.3928571 16.2410714,16.3928571 C16.3321429,16.3928571 17.1214286,16.0285714 17.9714286,15.6035714 Z M33.575,14.0553571 C33.4839286,12.75 33.1196429,10.5642857 32.7857143,9.16785714 C32.2089286,6.70892857 30.8732143,3.64285714 30.4178571,3.64285714 C30.0839286,3.64285714 28.4142857,14.0857143 28.6267857,14.6928571 C28.7482143,15.0267857 29.0821429,15.1178571 29.6589286,15.0267857 C30.2053571,14.9357143 30.9946429,15.1482143 31.875,15.6035714 C32.6339286,15.9982143 33.3625,16.3321429 33.5142857,16.3625 C33.6660714,16.3625 33.6964286,15.3607143 33.575,14.0553571 Z M27.1696429,8.01428571 L28.0803571,2.48928571 L25.2267857,2.27678571 C23.5875,2.15535714 22.2821429,2.18571429 22.1,2.36785714 C21.9178571,2.55 22.1303571,4.55357143 22.6160714,7.61964286 C23.6785714,14.1767857 23.4964286,13.7214286 24.9839286,13.6 L26.2285714,13.5089286 L27.1696429,8.01428571 Z" id="Shape"></path>
                    <path d="M52.8821429,21.3107143 C52.0625,20.4910714 51.2732143,19.5196429 51.1517857,19.1553571 C50.575,17.2732143 52.0017857,15.1482143 54.1571429,14.7535714 C55.3410714,14.5410714 55.8571429,13.6303571 55.25,12.9017857 C54.7339286,12.2946429 54.2482143,12.325 53.4285714,13.0535714 C52.5785714,13.7821429 52.3964286,13.8125 51.7892857,13.175 C51.0607143,12.4767857 51.1821429,11.9910714 52.3053571,11.0803571 C52.8214286,10.625 53.3678571,9.9875 53.4892857,9.68392857 C53.8535714,8.74285714 54.6732143,9.01607143 56.2214286,10.6857143 C57.4964286,12.0517857 57.6785714,12.4160714 57.6785714,13.6 C57.6785714,14.7232143 57.4964286,15.1178571 56.6464286,15.9678571 C56.0696429,16.5446429 55.3107143,17 54.9160714,17 C53.8535714,17 53.3678571,17.425 53.4892857,18.2446429 C53.6107143,19.1553571 54.7339286,19.3982143 55.4321429,18.6696429 C56.1910714,17.9410714 57.1928571,18.2142857 57.3142857,19.1553571 C57.375,19.7321429 57.1625,20.1571429 56.4946429,20.7339286 C55.9785714,21.1589286 55.5535714,21.6446429 55.5535714,21.8267857 C55.5535714,22.0089286 55.2803571,22.2821429 54.9464286,22.4642857 C54.4607143,22.7375 54.1267857,22.5553571 52.8821429,21.3107143 Z" id="Path"></path>
                </g>
            </g>
        </g>
    </g>
</svg>