<?xml version="1.0" encoding="UTF-8"?>
<svg width="62px" height="60px" viewBox="0 0 62 60" version="1.1" xmlns="http://www.w3.org/2000/svg" xmlns:xlink="http://www.w3.org/1999/xlink">
    <title>7D659ADC-E4FE-4AAE-B39F-71FC55D991DC</title>
    <g id="Page-2-🥲" stroke="none" stroke-width="1" fill="none" fill-rule="evenodd">
        <g id="K-Startup/Startup-Guide-1" transform="translate(-945.000000, -1412.000000)" fill="#1F3C88" fill-rule="nonzero">
            <g id="guarantee" transform="translate(945.000000, 1412.000000)">
                <path d="M56.8333333,0 L13.4333333,0 C10.581071,0.0035358278 8.2701986,2.31697324 8.26666667,5.17240149 L8.26666667,45.5171331 L1.03333333,45.5171331 C0.462679004,45.5171331 0,45.9803257 0,46.5516134 L0,48.620574 C0.0035319075,51.4760023 2.31440433,53.7894397 5.16666667,53.7929755 L37.2247233,53.7929755 L37.2247233,58.965377 C37.2247233,59.3573481 37.4457194,59.7154762 37.7958821,59.890752 C38.146045,60.0660277 38.5648274,60.0281439 38.8781576,59.7927593 L42.3913899,57.1550365 L45.9046224,59.7927593 C46.0832357,59.9276255 46.3012045,59.9999592 46.5247233,59.9999592 C46.6851726,60.0013727 46.8436035,59.9660144 46.9879069,59.8963083 C47.3395833,59.7200224 47.5605795,59.3588634 47.5580566,58.965377 L47.5580566,53.7929755 L48.5666667,53.7929755 C51.418929,53.7894397 53.7298014,51.4760023 53.7333333,48.620574 L53.7333333,8.27584239 L60.9666667,8.27584239 C61.537321,8.27584239 62,7.81264983 62,7.24136209 L62,5.17240149 C61.9964681,2.31697324 59.6855957,0.0035358278 56.8333333,0 Z M37.2247233,51.7240149 L5.16666667,51.7240149 C3.45470381,51.7240149 2.06666667,50.3344371 2.06666667,48.620574 L2.06666667,47.5860937 L37.2247233,47.5860937 L37.2247233,51.7240149 Z M45.4913899,56.8964164 L43.011491,55.0345539 C42.6441732,54.7582548 42.1391113,54.7582548 41.7712891,55.0345539 L39.2913899,56.8964164 L39.2913899,45.3423626 C39.4911946,45.3580211 39.6920085,45.3544854 39.890804,45.3307449 C40.4871908,46.1010488 41.4059896,46.5516134 42.3792806,46.5516134 C43.3525716,46.5516134 44.270866,46.1010488 44.8672526,45.3307449 C45.073112,45.3554956 45.2809896,45.3595365 45.4873535,45.3423626 L45.4913899,56.8964164 Z M46.8203939,40.3240219 C46.5449056,40.4220146 46.3234049,40.6326485 46.2118978,40.9028863 C46.0998861,41.1736292 46.1074545,41.47872 46.2335938,41.7434015 C46.4288575,42.1535568 46.3461101,42.6425104 46.0262207,42.9647753 C45.7058268,43.2870401 45.21792,43.3729101 44.8072103,43.1794501 C44.5433268,43.0531707 44.2380696,43.0450888 43.9676269,43.1567199 C43.6966797,43.2688558 43.4867839,43.4906024 43.3883952,43.7669016 C43.2375326,44.1952411 42.8328776,44.4821477 42.3792806,44.4821477 C41.925179,44.4821477 41.5205241,44.1952411 41.3696615,43.7669016 C41.2717774,43.4906024 41.0613769,43.2688558 40.7909342,43.1567199 C40.519987,43.0450888 40.2147299,43.0531707 39.9508464,43.1794501 C39.5401368,43.3729101 39.0522299,43.2870401 38.7323405,42.9647753 C38.4119465,42.6425104 38.3291993,42.1535568 38.5249674,41.7434015 C38.6506022,41.4792252 38.6586752,41.1736292 38.5466634,40.9033913 C38.4351563,40.6326485 38.2141601,40.4225196 37.9386719,40.3240219 C37.5103028,40.1714764 37.2237142,39.765362 37.2237142,39.3102513 C37.2237142,38.8551407 37.5103028,38.4490263 37.9386719,38.2964808 C38.2141601,38.197983 38.4346517,37.9878542 38.5461589,37.7176164 C38.6581705,37.4473786 38.6500976,37.1422877 38.5249674,36.8781113 C38.3281901,36.4679561 38.4109375,35.9784974 38.7313314,35.6557274 C39.0512207,35.3334626 39.5396321,35.2470875 39.9508464,35.4410526 C40.2147299,35.567332 40.519987,35.5754138 40.7909342,35.4637828 C41.0613769,35.3516468 41.2717774,35.1299003 41.3696615,34.8536011 C41.5205241,34.4252616 41.925179,34.1383549 42.3792806,34.1383549 C42.8328776,34.1383549 43.2375326,34.4252616 43.3883952,34.8536011 C43.4867839,35.1299003 43.6966797,35.3516468 43.9676269,35.4637828 C44.2380696,35.5754138 44.5433268,35.567332 44.8072103,35.4410526 C45.21792,35.2475926 45.7058268,35.3334626 46.0262207,35.6557274 C46.3461101,35.9779923 46.4288575,36.4669459 46.2335938,36.8771012 C46.1074545,37.1417827 46.0998861,37.4468735 46.2118978,37.7176164 C46.3234049,37.9878542 46.5449056,38.1984881 46.8203939,38.2964808 C47.2477538,38.4500365 47.5333333,38.8556457 47.5333333,39.3102513 C47.5333333,39.7648569 47.2477538,40.1704662 46.8203939,40.3240219 L46.8203939,40.3240219 Z M52.6202799,2.19827063 C52.5617514,2.28110988 52.5097819,2.36900023 52.4562988,2.45588054 C52.3458007,2.63267154 52.2469076,2.81552408 52.1586101,3.00393281 C52.1121908,3.10748183 52.0687988,3.20294898 52.0284342,3.30397244 C51.9517415,3.50702968 51.8871582,3.71412772 51.8361979,3.92476161 C51.8124837,4.02123906 51.7822103,4.11418065 51.7640462,4.21217347 C51.7014811,4.52888207 51.6691894,4.85013657 51.6666667,5.17240149 L51.6666667,48.620574 C51.6666667,50.3344371 50.2786295,51.7240149 48.5666667,51.7240149 C48.222054,51.7174484 47.8814778,51.6532985 47.5580566,51.5335857 L47.5580566,44.3376841 C48.2008627,43.6608269 48.5041016,42.7298956 48.385026,41.8035105 C49.1529622,41.2049465 49.6020182,40.2846226 49.6020182,39.3102513 C49.6020182,38.33588 49.1529622,37.4155562 48.385026,36.8169922 C48.5071288,35.8512078 48.1766439,34.8828979 47.4899413,34.1929076 C46.8032389,33.5034225 45.8370118,33.170045 44.8712891,33.2897578 C44.2749024,32.5194539 43.356608,32.0688893 42.383317,32.0688893 C41.410026,32.0688893 40.4912272,32.5194539 39.8948405,33.2897578 C38.9296224,33.1705501 37.9633952,33.5039276 37.2766927,34.1934128 C36.5904948,34.8828979 36.2600097,35.8512078 36.381608,36.8169922 C35.6136719,37.4155562 35.1641113,38.33588 35.1641113,39.3102513 C35.1641113,40.2846226 35.6136719,41.2049465 36.381608,41.8035105 C36.2595052,42.7430287 36.5723307,43.687093 37.230778,44.3679912 L37.230778,45.5171331 L10.3333333,45.5171331 L10.3333333,5.17240149 C10.3333333,3.45853841 11.7213705,2.0689606 13.4333333,2.0689606 L52.7,2.0689606 C52.6712403,2.10936998 52.6495443,2.15584078 52.6202799,2.19827063 L52.6202799,2.19827063 Z M59.9333333,6.20688179 L53.7333333,6.20688179 L53.7333333,5.17240149 C53.7333333,3.45853841 55.1213705,2.0689606 56.8333333,2.0689606 C58.5452962,2.0689606 59.9333333,3.45853841 59.9333333,5.17240149 L59.9333333,6.20688179 Z" id="Shape"></path>
                <polygon id="Path" points="34 8 38 8 38 10 34 10"></polygon>
                <polygon id="Path" points="24 8 32 8 32 10 24 10"></polygon>
                <polygon id="Path" points="21 14 42 14 42 16 21 16"></polygon>
                <polygon id="Path" points="16 20 21 20 21 22 16 22"></polygon>
                <polygon id="Path" points="15 25 27 25 27 27 15 27"></polygon>
                <polygon id="Path" points="23 20 47 20 47 22 23 22"></polygon>
                <polygon id="Path" points="29 25 46 25 46 27 29 27"></polygon>
                <polygon id="Path" points="15 30 36 30 36 32 15 32"></polygon>
                <polygon id="Path" points="16 35 33 35 33 37 16 37"></polygon>
            </g>
        </g>
    </g>
</svg>