<?xml version="1.0" encoding="UTF-8"?>
<svg width="60px" height="60px" viewBox="0 0 60 60" version="1.1" xmlns="http://www.w3.org/2000/svg" xmlns:xlink="http://www.w3.org/1999/xlink">
    <title>1110B80B-A581-4347-A09E-F29F45822E4F</title>
    <g id="Page-2-🥲" stroke="none" stroke-width="1" fill="none" fill-rule="evenodd">
        <g id="K-Startup/Startup-Guide-1" transform="translate(-279.000000, -1411.000000)" fill="#1F3C88" fill-rule="nonzero">
            <g id="Screenshot-2021-05-05-at-6.41.58-AM" transform="translate(279.000000, 1411.000000)">
                <g id="Group" transform="translate(30.000000, 30.000000) scale(-1, 1) rotate(-180.000000) translate(-30.000000, -30.000000) ">
                    <path d="M18.1709559,59.724011 C15.4136029,58.951242 12.9044118,56.826127 11.7463235,54.3146274 C11.3051471,53.3210672 11.1672794,52.5206992 11.1672794,50.5611776 C11.1672794,48.1600736 11.2224265,47.9944802 12.4632353,45.5933763 C14.9448529,40.7911684 15.7444853,36.7341306 15.9099265,28.0128795 L16.0477941,21.7203312 L15.46875,21.7203312 C14.1452206,21.7203312 12.9871324,20.8923643 10.9191176,18.4360626 L8.74080882,15.924563 L5.34926471,15.924563 C1.98529412,15.924563 1.93014706,15.924563 1.04779412,15.124195 L0.137867647,14.323827 L0.0551470588,10.101196 C-3.64513975e-13,7.81048758 0.0275735294,5.63017479 0.110294118,5.27138914 L0.275735294,4.60901564 L17.9227941,4.60901564 L35.5422794,4.60901564 L36.7555147,3.56025759 C41.1948529,-0.27598896 46.7647059,-1.04875805 52.0588235,1.43514259 C60.6341912,5.46458142 62.7022059,17.2217111 56.0294118,23.8730451 C50.3216912,29.5584177 41.4981618,29.4480221 36.0110294,23.6522539 C34.1360294,21.6375345 33.0330882,19.6780129 32.4816176,17.3873045 C32.2886029,16.5869365 32.0680147,15.924563 31.9852941,15.924563 C31.9025735,15.924563 31.1305147,16.7525299 30.2757353,17.8012879 C27.7665441,20.7819687 27.0220588,21.3891444 25.78125,21.49954 L24.6783088,21.5823367 L24.7058824,26.826127 C24.7334559,34.5538178 25.8915441,40.6531739 28.2904412,45.6209752 C30.0275735,49.2640294 30.0827206,52.1895124 28.4834559,55.1425943 C26.5533088,58.7304508 21.9209559,60.7727691 18.1709559,59.724011 Z M22.4172794,57.8472861 C24.1544118,57.4333027 25.9466912,55.9705612 26.8841912,54.2594296 C27.6011029,52.9622815 27.7113971,52.4931003 27.7113971,50.699172 C27.7113971,48.850046 27.5735294,48.3532659 26.5533088,46.1453542 C24.4025735,41.5087397 22.8860294,34.4710212 22.8860294,29.0616375 L22.8860294,26.4121435 L20.4595588,26.4121435 L18.0055147,26.4121435 L17.8125,29.8896044 C17.4540441,36.8445262 16.4613971,41.3431463 14.2555147,46.1177553 C13.125,48.6292548 12.8768382,49.4296228 12.8768382,50.6715731 C12.8768382,55.6393744 17.5091912,59.0892364 22.4172794,57.8472861 Z M48.7775735,25.9981601 C51.2040441,25.4185833 52.9411765,24.3974241 54.7058824,22.5482981 C57.3253676,19.8160074 58.3731618,16.8905244 58.0974265,13.0818767 C57.7941176,8.77644894 55.1470588,4.94020239 51.09375,3.00827967 C49.0533088,2.04231831 48.8051471,1.98712052 46.1856618,1.98712052 C42.9595588,1.98712052 41.4430147,2.42870285 39.1544118,4.02943882 C34.9080882,6.9825207 32.9227941,12.5850966 34.4393382,17.525299 C36.3694853,23.900644 42.4632353,27.4885005 48.7775735,25.9981601 Z M22.8860294,23.100276 L22.8860294,21.7203312 L20.4044118,21.7203312 L17.9227941,21.7203312 L17.9227941,23.100276 L17.9227941,24.4802208 L20.4044118,24.4802208 L22.8860294,24.4802208 L22.8860294,23.100276 Z M27.65625,18.0220791 C28.5110294,17.0285189 29.2279412,16.1729531 29.2279412,16.0901564 C29.2279412,16.0073597 25.2573529,15.924563 20.4044118,15.924563 C15.5514706,15.924563 11.5808824,16.0073597 11.5808824,16.1453542 C11.5808824,16.2557498 12.2150735,17.1113155 12.9871324,18.0772769 L14.3933824,19.7884085 L20.2389706,19.7884085 L26.0845588,19.7884085 L27.65625,18.0220791 Z M32.3161765,11.950322 C32.5367647,10.6807728 33.0606618,8.94204232 33.4466912,8.08647654 L34.1636029,6.54093836 L18.0330882,6.54093836 L1.93014706,6.54093836 L1.93014706,10.1287948 C1.93014706,13.2198712 1.98529412,13.7166513 2.42647059,13.9650414 C2.72977941,14.1582337 8.05147059,14.2686293 17.3713235,14.2686293 L31.875,14.2686293 L32.3161765,11.950322 Z" id="Shape"></path>
                    <path d="M18.8327206,54.701012 C16.3235294,53.624655 16.1305147,49.5676173 18.5294118,48.325667 C19.6323529,47.7460902 21.8382353,47.9392824 22.6378676,48.6568537 C23.3547794,49.2640294 23.9889706,50.699172 23.9889706,51.5823367 C23.9889706,52.6034959 23.0514706,54.0662374 22.03125,54.6182153 C20.9283088,55.1977921 20.0459559,55.225391 18.8327206,54.701012 Z M21.5625,52.7138914 C22.5827206,51.8031279 22.03125,50.0643974 20.625,49.7332107 C20.0459559,49.5952162 19.7150735,49.7056118 19.1911765,50.2575897 C18.3363971,51.0855566 18.28125,51.775529 19.0257353,52.575897 C19.7150735,53.2934683 20.8455882,53.3762649 21.5625,52.7138914 Z" id="Shape"></path>
                    <path d="M48.9154412,16.1729531 C46.9577206,14.2962282 44.7794118,12.2263109 44.0625,11.5639374 L42.7665441,10.3219871 L41.5808824,12.7230911 C40.6433824,14.599816 40.2849265,15.0965961 39.8161765,15.0965961 C39.4852941,15.0965961 39.1544118,14.9034039 39.0716912,14.6826127 C38.9613971,14.4618215 39.5680147,12.8334867 40.3952206,11.0947562 C41.6360294,8.44526219 41.9944853,7.89328427 42.4632353,7.97608096 C42.7389706,8.03127875 45.4136029,10.349586 48.3915441,13.1646734 C52.4172794,16.9733211 53.7683824,18.3808648 53.7132353,18.8224471 C53.5202206,20.1471941 52.5275735,19.5952162 48.9154412,16.1729531 Z" id="Path"></path>
                </g>
            </g>
        </g>
    </g>
</svg>