<?xml version="1.0" encoding="UTF-8"?>
<svg width="68px" height="68px" viewBox="0 0 68 68" version="1.1" xmlns="http://www.w3.org/2000/svg" xmlns:xlink="http://www.w3.org/1999/xlink">
    <title>02A0D469-0AC2-41A3-9752-E1D876FC396A</title>
    <g id="Page-2-🥲" stroke="none" stroke-width="1" fill="none" fill-rule="evenodd">
        <g id="K-Startup/Startup-Guide-1" transform="translate(-124.000000, -3231.000000)" fill="#FFFFFF" fill-rule="nonzero">
            <g id="Group-9" transform="translate(100.000000, 3212.000000)">
                <g id="Group" transform="translate(24.000000, 19.000000)">
                    <path d="M53.7133071,26.6038734 C45.9682677,26.6613333 39.6672913,33.0584 39.6672913,40.8650667 L39.6678268,42.8466667 L37.1716378,46.3229333 C36.7146457,46.9594667 36.6536063,47.7866667 37.0128819,48.4824 C37.6709291,49.7581333 38.8986772,49.6101333 39.742252,49.6101333 C40.1759528,53.6496 42.3709606,59.9901333 45.7974646,59.9901333 L48.2751811,59.9901333 C48.2706299,60.1426667 48.2717008,65.976 48.2717008,66.1290667 C48.2717008,67.1565333 49.1107244,67.992 50.1417008,67.992 L64.0993701,67.992 C65.639811,67.992 66.5197953,66.2386667 65.5956378,65.0114667 C63.6806614,62.4677333 62.0979213,60.8762667 62.0979213,57.8069333 C62.0979213,55.7298667 64.1480945,51.1586667 66.180063,47.5498667 C71.4514016,38.1858667 64.5780472,26.5258667 53.7133071,26.6038734 L53.7133071,26.6038734 Z M64.3122047,46.5064 C63.5845512,47.7984 59.956189,54.4144 59.956189,57.8069333 C59.956189,61.5450667 61.8018268,63.528 63.5564409,65.8584 L50.4134331,65.8584 L50.4139685,59.7197333 C50.4145039,58.6914667 49.5794961,57.8562667 48.5437008,57.8562667 L45.7974646,57.8562667 C44.3373386,57.8562667 41.9434173,52.8432 41.8090236,48.5098667 C41.7913543,47.9341333 41.3172283,47.4762667 40.7386929,47.4762667 L38.9760472,47.4762667 C41.6577638,43.7416 41.8095591,43.7146667 41.8095591,42.9328 C41.8095591,42.8917333 41.8095591,40.9053333 41.8079528,40.8642667 L41.8090236,40.8642667 C41.8090236,34.2256 47.1563937,28.7856 53.7288346,28.7370667 C62.9289134,28.6658667 68.7868189,38.5576 64.3122047,46.5064 L64.3122047,46.5064 Z" id="Shape"></path>
                    <path d="M30.8280945,46.3226667 L28.3316378,42.8464 L28.3319055,40.8645333 C28.3319055,33.0365333 21.9897008,26.6037333 14.1771969,26.6037333 C3.36492913,26.6037333 -3.42998425,38.2258667 1.81940157,47.5498667 C8.09949606,58.7058667 6.11116535,60.0864 2.40329134,65.0112 C1.47940157,66.2386667 2.35938583,67.9917333 3.89955906,67.9917333 L17.8572283,67.9917333 C18.8884724,67.9917333 19.7274961,67.156 19.7274961,66.1288 C19.7274961,65.9685333 19.7291024,60.1490667 19.7240157,59.9898667 L22.2017323,59.9898667 C25.6279685,59.9898667 27.8235118,53.6496 28.2572126,49.6098667 L29.1310394,49.6098667 C30.8270236,49.6098667 31.8148976,47.6973333 30.8280945,46.3226667 Z M27.2610394,47.4765333 C26.6825039,47.4765333 26.2086457,47.9341333 26.1907087,48.5101333 C26.0560472,52.8434667 23.662126,57.8565333 22.202,57.8565333 L19.4554961,57.8565333 C18.4197008,57.8565333 17.5849606,58.6914667 17.5852283,59.7197333 L17.5857638,65.8586667 L4.44275591,65.8586667 C6.10581102,63.6501333 8.04327559,61.596 8.04327559,57.8072 C8.04327559,54.4157333 4.41491339,47.7989333 3.68752756,46.5069333 C1.58729134,42.7765333 1.64806299,38.3328 3.8500315,34.6194667 C10.098,24.0837333 26.1901732,28.6301333 26.1901732,40.8648 L26.1912441,40.8648 C26.1893701,40.9112 26.1899055,42.8872 26.1899055,42.9338667 C26.1899055,43.7170667 26.3457165,43.7482667 29.0234173,47.4768 L27.2610394,47.4768 L27.2610394,47.4765333 Z" id="Shape"></path>
                    <path d="M40.1489134,30.4018667 C40.1489134,23.6813333 39.8699528,22.268 41.3290079,20.1717333 C42.3042992,18.7749333 42.8410709,17.1456 42.9031811,15.4426667 L51.869811,15.4426667 C52.755685,15.4426667 53.4761102,16.1602667 53.4761102,17.0426667 L53.4761102,22.376 C53.4761102,22.9650667 53.9555906,23.4426667 54.5469764,23.4426667 C55.1383622,23.4426667 55.6178425,22.9650667 55.6178425,22.376 L55.6178425,17.0426667 C55.6178425,14.984 53.9365827,13.3093333 51.869811,13.3093333 L42.7275591,13.3093333 C42.3538268,11.5272 41.4347559,9.87866667 40.0825197,8.62106667 C35.0028661,3.8976 26.6723307,6.55013333 25.2684252,13.3093333 L16.1296535,13.3093333 C14.0628819,13.3093333 12.381622,14.984 12.381622,17.0426667 L12.381622,22.376 C12.381622,22.9650667 12.8611024,23.4426667 13.4524882,23.4426667 C14.043874,23.4426667 14.5233543,22.9650667 14.5233543,22.376 L14.5233543,17.0426667 C14.5233543,16.1602667 15.2437795,15.4426667 16.1296535,15.4426667 L25.093874,15.4426667 C25.2416535,19.4597333 27.4628976,19.9328 27.4628976,23.4453333 C27.4628976,30.9221333 27.4495118,30.4493333 27.4864567,30.6232 C27.729811,33.6432 30.2565197,35.9866667 33.3178583,35.9866667 L34.2816378,35.9866667 C37.7375906,35.9866667 40.1489134,33.0418667 40.1489134,30.4018667 L40.1489134,30.4018667 Z M34.2816378,33.8530667 L33.3178583,33.8530667 C31.7367244,33.8530667 30.3783307,32.8688 29.8447717,31.4690667 L37.7574016,31.4690667 C37.2235748,32.8685333 35.8641102,33.8530667 34.2816378,33.8530667 Z M38.0071811,29.3352 L29.6043622,29.3352 L29.6043622,26.9946667 L38.0071811,26.9946667 L38.0071811,29.3352 Z M34.8765039,24.8608 L34.8765039,20.2653333 L37.6709291,17.4818667 C38.0893701,17.0653333 38.0893701,16.3898667 37.6709291,15.9736 C37.2524882,15.5568 36.5743622,15.5568 36.1567244,15.9736 L34.8775748,17.2477333 L34.8775748,15.4458667 C34.8775748,14.8568 34.3983622,14.3792 33.8067087,14.3792 C33.2153228,14.3792 32.7358425,14.8568 32.7358425,15.4458667 L32.7358425,17.2472 L31.4572283,15.9736 C31.0390551,15.5570667 30.3611969,15.5570667 29.9427559,15.9736 C29.524315,16.3901333 29.524315,17.0656 29.9427559,17.4818667 L32.7347717,20.2632 L32.7347717,24.8608 L29.6043622,24.8608 L29.6043622,23.4450667 C29.6043622,19.0616 27.0184882,18.5045333 27.235874,14.7125333 C27.5694488,9.00986667 34.4548504,6.30773333 38.6207874,10.1802667 C41.1619528,12.5432 41.4251181,16.2973333 39.5695748,18.9549333 C38.1985984,20.9245333 38.0079843,22.7037333 38.0079843,24.8605333 L34.8765039,24.8605333 L34.8765039,24.8608 Z" id="Shape"></path>
                    <path d="M33.7911811,5.008 C34.3825669,5.008 34.8620472,4.5304 34.8620472,3.94133333 L34.8620472,1.07466667 C34.8620472,0.4856 34.3825669,0.008 33.7911811,0.008 C33.1997953,0.008 32.720315,0.4856 32.720315,1.07466667 L32.720315,3.94133333 C32.720315,4.5304 33.1997953,5.008 33.7911811,5.008 Z" id="Path"></path>
                    <path d="M39.2906142,6.55253333 C39.8672756,6.55253333 39.9010079,6.38613333 42.0828976,4.21306667 C42.5013386,3.79653333 42.5013386,3.12106667 42.0828976,2.7048 C41.6649921,2.288 40.9863307,2.288 40.5686929,2.7048 L38.5335118,4.732 C37.8567244,5.4056 38.3453071,6.55253333 39.2906142,6.55253333 L39.2906142,6.55253333 Z" id="Path"></path>
                    <path d="M29.1173858,6.308 C30.0626929,6.308 30.5512756,5.1608 29.8747559,4.4872 L27.8395748,2.46 C27.4211339,2.0432 26.7432756,2.0432 26.3251024,2.46 C25.9069291,2.87653333 25.9069291,3.552 26.3251024,3.96826667 C28.504315,6.13946667 28.5393858,6.308 29.1173858,6.308 Z" id="Path"></path>
                </g>
            </g>
        </g>
    </g>
</svg>