<?xml version="1.0" encoding="UTF-8"?>
<svg width="19px" height="19px" viewBox="0 0 19 19" version="1.1" xmlns="http://www.w3.org/2000/svg" xmlns:xlink="http://www.w3.org/1999/xlink">
    <title>E1E1BCCA-6DC3-4C06-BCBB-45B72D4E2E6B</title>
    <g id="Page-2-🥲" stroke="none" stroke-width="1" fill="none" fill-rule="evenodd">
        <g id="K-Startup/Startup-Guide-1" transform="translate(-630.000000, -6954.000000)" fill="#FFFFFF" fill-rule="nonzero">
            <g id="Group-7" transform="translate(1.000000, 6853.000000)">
                <g id="Group-21-Copy-2" transform="translate(614.000000, 83.000000)">
                    <g id="phone-call-(2)" transform="translate(15.000000, 18.000000)">
                        <path d="M15.9944521,11.3259409 C15.5797464,10.8960573 15.0795343,10.6662186 14.549395,10.6662186 C14.023531,10.6662186 13.5190435,10.8918011 13.0872365,11.3216846 L11.7362363,12.6624104 C11.6250781,12.6028226 11.5139198,12.547491 11.4070369,12.4921595 C11.2531255,12.4155466 11.1077647,12.34319 10.9837805,12.2665771 C9.71828668,11.4663978 8.5682264,10.4236111 7.4651946,9.07437276 C6.93077997,8.40188172 6.57165334,7.83579749 6.310859,7.26120072 C6.66143499,6.94198029 6.98635909,6.60999104 7.30273255,6.29077061 C7.42244143,6.17159498 7.54215031,6.04816308 7.66185918,5.92898746 C8.55967576,5.03517025 8.55967576,3.87746416 7.66185918,2.98364695 L6.49469763,1.82168459 C6.3621628,1.68974014 6.22535265,1.55353943 6.09709314,1.41733871 C5.84057412,1.15344982 5.57122915,0.881048387 5.29333354,0.625672043 C4.87862778,0.217069892 4.38269101,0 3.86110233,0 C3.33951365,0 2.83502623,0.217069892 2.40749453,0.625672043 C2.40321921,0.629928315 2.40321921,0.629928315 2.39894389,0.634184588 L0.945336097,2.09408602 C0.398095515,2.63888889 0.0859973701,3.30286738 0.0175922973,4.07325269 C-0.0850153119,5.31608423 0.282661954,6.47379032 0.56483288,7.23140681 C1.25743424,9.09139785 2.29206097,10.8151882 3.83545042,12.6624104 C5.70803929,14.8884409 7.96113138,16.6462814 10.5348722,17.8848566 C11.5181952,18.3487903 12.8307175,18.8978495 14.2971512,18.9914875 C14.3869329,18.9957437 14.4809899,19 14.5664962,19 C15.5540945,19 16.383506,18.6467294 17.0333542,17.9444444 C17.0376295,17.9359319 17.0461801,17.9316756 17.0504554,17.9231631 C17.2727719,17.6550179 17.5292909,17.4124104 17.7986359,17.1527778 C17.9824745,16.9782706 18.1705885,16.7952509 18.3544271,16.6037186 C18.7776835,16.1653226 19,15.6545699 19,15.1310484 C19,14.6032706 18.7734082,14.0967742 18.3416012,13.671147 L15.9944521,11.3259409 Z M17.5250156,15.8077957 C17.5207403,15.8077957 17.5207403,15.812052 17.5250156,15.8077957 C17.3582783,15.9865591 17.1872656,16.1482975 17.0034269,16.3270609 C16.7255313,16.5909498 16.4433604,16.8676075 16.1782907,17.1783154 C15.7464837,17.6379928 15.237721,17.8550627 14.5707715,17.8550627 C14.5066418,17.8550627 14.4382367,17.8550627 14.374107,17.8508065 C13.1043378,17.7699373 11.9243503,17.2762097 11.0393597,16.8548387 C8.6195302,15.6886201 6.49469763,14.0329301 4.72899169,11.9345878 C3.27110857,10.1852599 2.29633628,8.56787634 1.65076341,6.8313172 C1.25315892,5.77150538 1.10779815,4.94578853 1.1719279,4.16689068 C1.21468107,3.66890681 1.40707034,3.25604839 1.76192165,2.90277778 L3.21980477,1.45138889 C3.4292953,1.25560036 3.65161179,1.14919355 3.86965296,1.14919355 C4.13899793,1.14919355 4.3570391,1.3109319 4.49384925,1.44713262 C4.49812457,1.45138889 4.50239988,1.45564516 4.5066752,1.45990143 C4.76746954,1.70250896 5.01543793,1.95362903 5.27623227,2.22177419 C5.4087671,2.35797491 5.54557724,2.49417563 5.68238739,2.63463262 L6.84954894,3.79659498 C7.30273255,4.24775986 7.30273255,4.66487455 6.84954894,5.11603943 C6.72556475,5.23947133 6.60585587,5.36290323 6.48187168,5.48207885 C6.12274504,5.84811828 5.78071968,6.18862007 5.4087671,6.52060932 C5.40021646,6.52912186 5.39166583,6.53337814 5.38739051,6.54189068 C5.01971325,6.90793011 5.08811832,7.26545699 5.16507403,7.50806452 C5.16934934,7.52083333 5.17362466,7.53360215 5.17789998,7.54637097 C5.48144749,8.27844982 5.90897919,8.96796595 6.55882738,9.78942652 L6.5631027,9.7936828 C7.74309021,11.2408154 8.98720747,12.3687276 10.3595842,13.2327509 C10.5348722,13.343414 10.7144356,13.4327957 10.8854482,13.5179211 C11.0393597,13.5945341 11.1847204,13.6668907 11.3087046,13.7435036 C11.3258059,13.7520161 11.3429072,13.7647849 11.3600084,13.7732975 C11.5053692,13.8456541 11.6421794,13.8797043 11.7832648,13.8797043 C12.1381161,13.8797043 12.3604326,13.6583781 12.433113,13.5860215 L13.8952714,12.1303763 C14.0406322,11.9856631 14.2714993,11.8111559 14.5408443,11.8111559 C14.805914,11.8111559 15.0239551,11.9771505 15.15649,12.1218638 C15.1607653,12.1261201 15.1607653,12.1261201 15.1650406,12.1303763 L17.5207403,14.4755824 C17.961098,14.9097222 17.961098,15.3566308 17.5250156,15.8077957 Z" id="Shape"></path>
                    </g>
                </g>
            </g>
        </g>
    </g>
</svg>