<?xml version="1.0" encoding="UTF-8"?>
<svg width="20px" height="20px" viewBox="0 0 20 20" version="1.1" xmlns="http://www.w3.org/2000/svg" xmlns:xlink="http://www.w3.org/1999/xlink">
    <title>1E9CF39F-685E-4D39-9E61-2DB17800D51B</title>
    <g id="Page-1-Copy" stroke="none" stroke-width="1" fill="none" fill-rule="evenodd">
        <g id="Karnataka-Startup-Mega-Menu" transform="translate(-1022.000000, -38.000000)" fill="#FFFFFF" fill-rule="nonzero">
            <g id="accesibility-(2)" transform="translate(1022.000000, 38.000000)">
                <path d="M10,0 C4.4732666,0 0,4.47250367 0,10 C0,15.5267334 4.47250367,20 10,20 C15.5267334,20 20,15.5274963 20,10 C20,4.4732666 15.5274963,0 10,0 Z M6.49734496,17.6803589 L10,14.1777039 L13.502655,17.6803589 C11.2919617,18.6898804 8.71047973,18.6909485 6.49734496,17.6803589 L6.49734496,17.6803589 Z M14.9015808,16.8696594 L10.78125,12.7493286 L10.78125,10.5630493 L14.8564148,9.20471191 C15.2658081,9.06829836 15.4870605,8.62579344 15.3504944,8.21655273 C15.2140808,7.80715941 14.7715759,7.58605957 14.3623352,7.72247312 L10,9.17648316 L5.6376648,7.72232055 C5.22827148,7.58590699 4.78591918,7.80715941 4.64950562,8.21655273 C4.51309203,8.62579344 4.73419187,9.06829836 5.1435852,9.20471191 L9.21875,10.5630493 L9.21875,12.7493286 L5.09841918,16.8696594 C2.94189453,15.3239441 1.5625,12.8285217 1.5625,10 C1.5625,5.33676148 5.33615113,1.5625 10,1.5625 C14.6632385,1.5625 18.4375,5.33630371 18.4375,10 C18.4375,12.8326416 17.0547485,15.3263855 14.9015808,16.8696594 Z M10,3.07296754 C8.72192383,3.07296754 7.68234254,4.11254883 7.68234254,5.390625 C7.68234254,6.66870117 8.72207641,7.70828246 10,7.70828246 C11.2779236,7.70828246 12.3176575,6.66870117 12.3176575,5.390625 C12.3176575,4.11254883 11.2780762,3.07296754 10,3.07296754 Z M10,6.14578246 C9.58358766,6.14578246 9.24484254,5.80703734 9.24484254,5.390625 C9.24484254,4.97421266 9.58358766,4.63546754 10,4.63546754 C10.4164123,4.63546754 10.7551575,4.97421266 10.7551575,5.390625 C10.7551575,5.80703734 10.4164123,6.14578246 10,6.14578246 Z" id="Shape"></path>
            </g>
        </g>
    </g>
</svg>