<svg id="fullscreen" xmlns="http://www.w3.org/2000/svg" width="19.998" height="19.998" viewBox="0 0 19.998 19.998">
  <path id="Path" d="M19.373,11.249a.639.639,0,0,0-.625.625v6.874H1.25V1.25H8.124A.643.643,0,0,0,8.749.625.657.657,0,0,0,8.124,0H1.25A1.25,1.25,0,0,0,0,1.25v17.5A1.25,1.25,0,0,0,1.25,20h17.5A1.25,1.25,0,0,0,20,18.749V11.865A.6.6,0,0,0,19.373,11.249Z" fill="#120f2d"/>
  <path id="Path-2" data-name="Path" d="M14.379,0H8.13a.625.625,0,1,0,0,1.25h4.747L.182,13.945a.621.621,0,0,0,.877.878l12.7-12.7V6.874a.625.625,0,1,0,1.25,0V.625h0A.637.637,0,0,0,14.379,0Z" transform="translate(4.994)" fill="#120f2d"/>
</svg>
