<svg width="255" height="384" viewBox="0 0 255 384" fill="none" xmlns="http://www.w3.org/2000/svg">
<mask id="mask0" mask-type="alpha" maskUnits="userSpaceOnUse" x="0" y="0" width="255" height="384">
<rect width="255" height="384" fill="#C4C4C4"/>
</mask>
<g mask="url(#mask0)">
<g style="mix-blend-mode:lighten" opacity="0.15">
<path d="M98.4854 -20C59.9146 -19.9547 22.9366 -4.96725 -4.3372 21.675C-31.611 48.3172 -46.9536 84.4388 -47 122.117C-47.0188 171.372 -34.6025 219.872 -10.8505 263.32C12.9015 306.768 47.256 343.824 89.1699 371.205C91.9243 373.027 95.1739 374 98.4999 374C101.826 374 105.076 373.027 107.83 371.205C149.755 343.835 184.118 306.782 207.871 263.331C231.624 219.88 244.034 171.375 244 122.117C243.946 84.4362 228.597 48.3146 201.318 21.6732C174.04 -4.96817 137.059 -19.9547 98.4854 -20ZM98.4854 337.659C63.7799 312.869 35.5524 280.429 16.0979 242.977C-3.35656 205.524 -13.489 164.115 -13.4759 122.117C-13.0014 93.4123 -0.995277 66.0405 19.9526 45.9054C40.9006 25.7704 69.1114 14.4858 98.4999 14.4858C127.888 14.4858 156.099 25.7704 177.047 45.9054C197.995 66.0405 210.001 93.4123 210.476 122.117C210.495 164.119 200.362 205.533 180.902 242.987C161.441 280.441 133.203 312.879 98.4854 337.659Z" fill="white"/>
<path d="M173.151 120.195C173.151 147.779 154.812 173.681 126.427 186.118C121.685 188.128 117.639 191.436 114.779 195.642C111.918 199.849 110.366 204.774 110.308 209.824V232.017H76.7835V209.824C76.8436 198.461 80.2664 187.358 86.6395 177.853C93.0125 168.348 102.064 160.846 112.702 156.252C129.085 149.092 139.627 134.914 139.627 120.195C139.341 109.717 134.879 99.7611 127.191 92.4486C119.503 85.1361 109.197 81.0442 98.4661 81.0442C87.7357 81.0442 77.4292 85.1361 69.7412 92.4486C62.0533 99.7611 57.5914 109.717 57.3057 120.195C57.2869 125.467 58.3437 130.69 60.4145 135.558C62.4853 140.426 65.5284 144.843 69.3662 148.55C71.2304 150.389 73.2855 152.033 75.4986 153.456L57.0137 180.756C52.942 178.124 49.1552 175.094 45.7123 171.713C38.7383 164.978 33.2074 156.954 29.442 148.109C25.6766 139.263 23.7525 129.774 23.7816 120.195C24.1682 101.096 32.2065 82.9062 46.1706 69.5327C60.1346 56.1591 78.9104 48.668 98.4661 48.668C118.022 48.668 136.798 56.1591 150.762 69.5327C164.726 82.9062 172.764 101.096 173.151 120.195Z" fill="white"/>
<path d="M98.4635 298.564C113.366 298.564 125.446 286.763 125.446 272.206C125.446 257.649 113.366 245.848 98.4635 245.848C83.5613 245.848 71.4805 257.649 71.4805 272.206C71.4805 286.763 83.5613 298.564 98.4635 298.564Z" fill="white"/>
</g>
</g>
</svg>
