<svg width="18" height="25" viewBox="0 0 18 25" fill="none" xmlns="http://www.w3.org/2000/svg">
<path d="M8.72654 0C6.41297 0.00278129 4.19495 0.923073 2.55901 2.55902C0.923069 4.19496 0.00278257 6.41297 1.2798e-06 8.72654C-0.00112689 11.751 0.743632 14.7291 2.16833 17.397C3.59303 20.0649 5.65369 22.3403 8.16778 24.0216C8.33299 24.1335 8.52791 24.1932 8.72741 24.1932C8.92691 24.1932 9.12184 24.1335 9.28705 24.0216C11.8018 22.341 13.863 20.0657 15.2877 17.3977C16.7125 14.7296 17.4569 11.7512 17.4548 8.72654C17.4516 6.41281 16.5309 4.1948 14.8947 2.55891C13.2585 0.923016 11.0403 0.00278033 8.72654 0ZM8.72654 21.9617C6.64483 20.4396 4.95168 18.4476 3.78475 16.1479C2.61783 13.8481 2.01006 11.3054 2.01085 8.72654C2.03931 6.96398 2.75947 5.28324 4.01597 4.04687C5.27247 2.81049 6.96462 2.11757 8.72741 2.11757C10.4902 2.11757 12.1824 2.81049 13.4389 4.04687C14.6954 5.28324 15.4155 6.96398 15.444 8.72654C15.4451 11.3057 14.8373 13.8486 13.67 16.1485C12.5028 18.4484 10.809 20.4401 8.72654 21.9617Z" fill="white"/>
<path d="M13.2056 8.60884C13.2056 10.3027 12.1056 11.8931 10.403 12.6568C10.1186 12.7802 9.8759 12.9833 9.70432 13.2416C9.53275 13.4999 9.43962 13.8024 9.43615 14.1124V15.4752H7.42529V14.1124C7.42889 13.4147 7.6342 12.733 8.01647 12.1493C8.39874 11.5656 8.94165 11.105 9.57977 10.8229C10.5624 10.3832 11.1948 9.51267 11.1948 8.60884C11.1776 7.96543 10.91 7.35413 10.4489 6.90511C9.98772 6.45609 9.3695 6.20483 8.72586 6.20483C8.08222 6.20483 7.46402 6.45609 7.00288 6.90511C6.54174 7.35413 6.2741 7.96543 6.25696 8.60884C6.25583 8.93256 6.31923 9.25326 6.44344 9.5522C6.56765 9.85115 6.75018 10.1223 6.98038 10.3499C7.0922 10.4629 7.21547 10.5638 7.34822 10.6512L6.23945 12.3275C5.99522 12.1659 5.76808 11.9799 5.56157 11.7723C5.14325 11.3587 4.81149 10.866 4.58564 10.3229C4.35978 9.77973 4.24437 9.19706 4.24611 8.60884C4.2693 7.43607 4.75146 6.31917 5.58905 5.49798C6.42665 4.67678 7.55287 4.2168 8.72586 4.2168C9.89886 4.2168 11.0251 4.67678 11.8627 5.49798C12.7003 6.31917 13.1824 7.43607 13.2056 8.60884Z" fill="white"/>
<path d="M8.72788 19.5612C9.62175 19.5612 10.3464 18.8366 10.3464 17.9427C10.3464 17.0488 9.62175 16.3242 8.72788 16.3242C7.83401 16.3242 7.10938 17.0488 7.10938 17.9427C7.10938 18.8366 7.83401 19.5612 8.72788 19.5612Z" fill="white"/>
</svg>
