<svg width="24" height="24" viewBox="0 0 24 24" fill="none" xmlns="http://www.w3.org/2000/svg">
<path d="M9.33464 20.6253C9.77186 20.6253 10.1263 20.2709 10.1263 19.8337C10.1263 19.3964 9.77186 19.042 9.33464 19.042C8.89741 19.042 8.54297 19.3964 8.54297 19.8337C8.54297 20.2709 8.89741 20.6253 9.33464 20.6253Z" stroke="white" stroke-linecap="square"/>
<path d="M18.0417 20.6253C18.4789 20.6253 18.8333 20.2709 18.8333 19.8337C18.8333 19.3964 18.4789 19.042 18.0417 19.042C17.6044 19.042 17.25 19.3964 17.25 19.8337C17.25 20.2709 17.6044 20.6253 18.0417 20.6253Z" stroke="white" stroke-linecap="square"/>
<path d="M3 4H6.16667L8.28833 14.6004C8.36073 14.9649 8.55901 15.2923 8.84847 15.5253C9.13794 15.7583 9.50014 15.8821 9.87167 15.875H17.5667C17.9382 15.8821 18.3004 15.7583 18.5899 15.5253C18.8793 15.2923 19.0776 14.9649 19.15 14.6004L20.4167 7.95833H6.95833" stroke="white" stroke-linecap="square"/>
</svg>
